<svg width="25" height="24" viewBox="0 0 25 24" fill="none" xmlns="http://www.w3.org/2000/svg">
<path d="M11.6745 15.7046C11.6281 15.6594 11.4297 15.4887 11.2665 15.3298C10.2401 14.3977 8.5601 11.9661 8.0473 10.6934C7.9649 10.5001 7.7905 10.0115 7.7793 9.75041C7.7793 9.50024 7.8369 9.26176 7.9537 9.03419C8.1169 8.75051 8.3737 8.52294 8.6769 8.39825C8.8873 8.31797 9.5169 8.19328 9.5281 8.19328C10.2169 8.06858 11.3361 8 12.5729 8C13.7513 8 14.8249 8.06858 15.5241 8.17068C15.5353 8.18237 16.3177 8.30706 16.5857 8.44345C17.0753 8.69362 17.3793 9.18227 17.3793 9.70521V9.75041C17.3673 10.091 17.0633 10.8072 17.0521 10.8072C16.5385 12.0113 14.9409 14.3868 13.8793 15.3415C13.8793 15.3415 13.6065 15.6103 13.4361 15.7272C13.1913 15.9096 12.8881 16 12.5849 16C12.2465 16 11.9313 15.8979 11.6745 15.7046Z" fill="white"/>
</svg>
