<svg width="11" height="8" viewBox="0 0 11 8" fill="none" xmlns="http://www.w3.org/2000/svg">
<path d="M4.6745 7.70463C4.6281 7.65943 4.4297 7.48875 4.2665 7.32976C3.2401 6.39766 1.5601 3.9661 1.0473 2.69342C0.964897 2.50015 0.790497 2.0115 0.779297 1.75041C0.779297 1.50024 0.836897 1.26176 0.953697 1.03419C1.1169 0.750511 1.3737 0.522942 1.6769 0.398246C1.8873 0.317974 2.5169 0.193278 2.5281 0.193278C3.2169 0.0685826 4.3361 0 5.5729 0C6.7513 0 7.8249 0.0685826 8.5241 0.170677C8.5353 0.182367 9.3177 0.307063 9.5857 0.443449C10.0753 0.693619 10.3793 1.18227 10.3793 1.70521V1.75041C10.3673 2.09099 10.0633 2.80721 10.0521 2.80721C9.5385 4.0113 7.9409 6.38675 6.8793 7.34145C6.8793 7.34145 6.6065 7.61033 6.4361 7.72723C6.1913 7.9096 5.8881 8 5.5849 8C5.2465 8 4.9313 7.89791 4.6745 7.70463Z" fill="white"/>
</svg>
