<svg width="87" height="40" viewBox="0 0 87 40" fill="none" xmlns="http://www.w3.org/2000/svg">
<path d="M33.8732 16.1048L33.5668 15.8784L33.8732 15.6406C34.6472 15.1013 35.3003 14.4072 35.7911 13.6026C36.3729 12.4345 36.6757 11.1478 36.6757 9.84346C36.6757 8.5391 36.3729 7.25244 35.7911 6.08437C35.1535 5.01549 34.23 4.14508 33.1242 3.57079C31.939 2.95093 30.6149 2.64301 29.2771 2.67626H0.452148V5.02004C1.40615 4.99813 2.35162 5.20391 3.20984 5.62017C3.9694 6.00213 4.59761 6.60127 5.01423 7.34115C5.41728 8.12003 5.6276 8.9839 5.6276 9.86046C5.6276 10.737 5.41728 11.6008 5.01423 12.3797C4.60164 13.1255 3.97265 13.7294 3.20984 14.1121C2.3544 14.5374 1.4076 14.7473 0.452148 14.7235V17.1239C1.40615 17.102 2.35162 17.3077 3.20984 17.724C3.9694 18.106 4.59761 18.7051 5.01423 19.445C5.41728 20.2239 5.6276 21.0877 5.6276 21.9643C5.6276 22.8409 5.41728 23.7047 5.01423 24.4835C4.60164 25.2293 3.97265 25.8332 3.20984 26.2159C2.35409 26.6403 1.40752 26.8502 0.452148 26.8273V29.1711H29.2771C30.6149 29.2002 31.9371 28.8801 33.1128 28.2426C34.2227 27.6595 35.1495 26.7818 35.7911 25.7064C36.3729 24.5383 36.6757 23.2517 36.6757 21.9473C36.6757 20.6429 36.3729 19.3563 35.7911 18.1882C35.302 17.3854 34.6484 16.6947 33.8732 16.1615V16.1048ZM6.97748 6.14096C6.76427 5.75353 6.50104 5.3957 6.19447 5.07664H29.2771C30.2274 5.05567 31.1689 5.26144 32.0234 5.67677C32.7854 6.05527 33.4145 6.65528 33.8278 7.39775C34.2308 8.17663 34.4412 9.0405 34.4412 9.91706C34.4412 10.7936 34.2308 11.6574 33.8278 12.4363C33.4181 13.1843 32.7883 13.789 32.0234 14.1687C31.1717 14.593 30.2288 14.8029 29.2771 14.7801H6.12635C6.45641 14.4397 6.74236 14.0593 6.97748 13.6478C7.5593 12.4798 7.8621 11.1931 7.8621 9.88873C7.8621 8.58436 7.5593 7.29771 6.97748 6.12963V6.14096ZM33.8278 24.4722C33.4181 25.2202 32.7883 25.8249 32.0234 26.2046C31.1717 26.6289 30.2288 26.8388 29.2771 26.816H6.16039C6.47677 26.4722 6.75106 26.0921 6.97748 25.6837C7.5593 24.5156 7.8621 23.229 7.8621 21.9246C7.8621 20.6203 7.5593 19.3336 6.97748 18.1655C6.75585 17.7747 6.48086 17.4165 6.16039 17.1012H29.2771C30.2274 17.0802 31.1689 17.286 32.0234 17.7013C32.7854 18.0798 33.4145 18.6799 33.8278 19.4224C34.2308 20.2013 34.4412 21.0651 34.4412 21.9416C34.4412 22.8182 34.2308 23.682 33.8278 24.4609" fill="#FFA114"/>
<path d="M69.5814 13.1225C68.7938 13.1352 68.0217 12.9027 67.3721 12.4571C66.7063 11.9911 66.1824 11.3498 65.8587 10.6044C65.4832 9.75595 65.2976 8.83568 65.315 7.90801V2.9806H67.4634V8.25159C67.4547 8.74899 67.5464 9.24303 67.7331 9.70415C67.8874 10.0991 68.1496 10.4427 68.4898 10.6957C68.8054 10.9297 69.1885 11.0549 69.5814 11.0524C69.9798 11.0558 70.3687 10.9308 70.6904 10.6957C71.0295 10.4405 71.2926 10.0977 71.4515 9.70415C71.6453 9.24488 71.7401 8.74996 71.7298 8.25159V2.9806H73.6956V7.90801C73.7121 8.83454 73.5405 9.75482 73.1911 10.6131C72.8945 11.3523 72.3937 11.9919 71.7472 12.4571C71.1116 12.9046 70.3499 13.1377 69.5727 13.1225" fill="#23222B"/>
<path d="M75.9963 13.1225C75.2087 13.1346 74.4368 12.9022 73.787 12.4571C73.1208 11.9925 72.598 11.3507 72.2778 10.6044C71.9008 9.75628 71.7138 8.836 71.7299 7.90801L71.7298 2.9806H73.9044V8.25159C73.8942 8.7487 73.9845 9.24273 74.1697 9.70415C74.3254 10.0983 74.5873 10.4415 74.9264 10.6957C75.2426 10.9286 75.6253 11.0536 76.018 11.0524C76.4164 11.0558 76.8053 10.9308 77.127 10.6957C77.4674 10.4408 77.732 10.098 77.8924 9.70415C78.0842 9.24429 78.179 8.74978 78.1708 8.25159V2.9806H80.1365V7.90801C80.1531 8.83454 79.9814 9.75482 79.632 10.6131C79.3338 11.3514 78.8333 11.9905 78.1882 12.4571C77.5519 12.9032 76.7906 13.1361 76.0137 13.1225" fill="#23222B"/>
<path d="M59.4917 13.1225C58.5172 13.1388 57.5541 12.91 56.691 12.4571C55.8867 12.0348 55.2164 11.3961 54.7557 10.6131C54.2838 9.80328 54.0417 8.88006 54.0555 7.94285C54.0406 7.02099 54.2702 6.11165 54.7209 5.30735C55.1589 4.53465 55.8034 3.89918 56.5823 3.47208C57.4289 3.01198 58.3805 2.77967 59.3439 2.79796C60.2117 2.78511 61.0678 2.99951 61.8272 3.41987C62.5398 3.81091 63.13 4.39206 63.532 5.09861C63.9447 5.82731 64.155 6.65319 64.1408 7.49056C64.1408 7.69496 64.1408 7.92544 64.1147 8.1255C64.0886 8.32555 64.0712 8.5604 64.0321 8.83439H56.4387C56.5238 9.28154 56.7197 9.70021 57.0084 10.0521C57.3016 10.3966 57.6771 10.6614 58.1 10.8219C58.5785 11.0058 59.0879 11.0959 59.6005 11.0872C60.0893 11.0987 60.576 11.0191 61.0356 10.8523C61.4473 10.6846 61.8138 10.4224 62.1055 10.0869L63.5798 11.3916C63.0605 11.9546 62.4275 12.4009 61.7227 12.7008C61.018 13.0007 60.2575 13.1474 59.4917 13.1312V13.1225ZM61.8706 6.99041C61.8048 6.56246 61.6427 6.15502 61.3966 5.79879C61.1773 5.48494 60.8766 5.23683 60.5268 5.08119C60.148 4.91776 59.739 4.83625 59.3265 4.842C58.8787 4.83851 58.4349 4.92581 58.0218 5.09861C57.6354 5.26574 57.2952 5.52387 57.0302 5.85098C56.7645 6.18438 56.5785 6.57413 56.4866 6.99041H61.8706Z" fill="#23222B"/>
<path d="M41.5477 5.59877C41.522 4.56282 41.7695 3.53837 42.2653 2.62842C42.7298 1.79878 43.4266 1.12304 44.2702 0.6844C45.1802 0.217133 46.1917 -0.0174536 47.2145 0.00160317C48.2377 -0.0218802 49.2503 0.212956 50.1587 0.6844C50.9975 1.12818 51.6917 1.80276 52.1593 2.62842C52.6599 3.53686 52.9105 4.56183 52.8856 5.59877V12.9182H50.4849V5.59877C50.5013 4.95438 50.361 4.31566 50.0761 3.73741C49.8227 3.22963 49.4207 2.81097 48.9236 2.53708C48.3983 2.2568 47.8098 2.11604 47.2145 2.12827C46.6232 2.11534 46.0388 2.25621 45.5184 2.53708C45.0244 2.81361 44.6245 3.23167 44.3702 3.73741C44.0873 4.31634 43.9471 4.95458 43.9614 5.59877V12.9182H41.5477V5.59877Z" fill="#23222B"/>
<path d="M59.0177 29.2747C58.0425 29.2918 57.0789 29.0613 56.2169 28.605C55.4161 28.1758 54.7472 27.5369 54.2816 26.7567C53.8084 25.9444 53.5677 25.0176 53.5858 24.0777C53.5716 23.1589 53.8109 22.2539 54.2774 21.4622C54.7438 20.6704 55.4194 20.0225 56.23 19.5895C57.0865 19.1308 58.0461 18.8987 59.0177 18.9154C59.9889 18.9014 60.9479 19.1333 61.8054 19.5895C62.6107 20.0145 63.2867 20.6484 63.7624 21.4248C64.238 22.2206 64.482 23.1333 64.467 24.0603C64.4883 25.0022 64.2506 25.9319 63.7798 26.748C63.3089 27.5337 62.6321 28.1759 61.8228 28.605C60.9649 29.0597 60.0059 29.2901 59.0351 29.2747H59.0177ZM59.0351 27.2046C59.5906 27.2141 60.139 27.0793 60.6268 26.8132C61.0887 26.5559 61.4697 26.1748 61.7271 25.7129C61.9992 25.2116 62.1356 24.6479 62.1229 24.0777C62.1361 23.5102 61.9996 22.9492 61.7271 22.4512C61.4677 21.9952 61.0868 21.6203 60.6268 21.3683C60.1305 21.1095 59.5772 20.9794 59.0177 20.9899C58.4583 20.9814 57.9055 21.1114 57.4085 21.3683C56.9429 21.6118 56.5578 21.9849 56.2995 22.4425C56.0298 22.9382 55.8949 23.4961 55.9081 24.0603C55.8973 24.6326 56.0319 25.1982 56.2995 25.7042C56.5524 26.1747 56.9381 26.5603 57.4085 26.8132C57.9088 27.0794 58.4685 27.2141 59.0351 27.2046Z" fill="#23222B"/>
<path d="M71.0731 29.2747C70.0993 29.2917 69.1372 29.0613 68.2767 28.605C67.4741 28.1783 66.8045 27.5388 66.3414 26.7566C65.8649 25.9455 65.6225 25.0182 65.6412 24.0776C65.6271 23.1588 65.8664 22.2539 66.3329 21.4621C66.7993 20.6704 67.4749 20.0225 68.2854 19.5895C69.1422 19.1313 70.1017 18.8992 71.0731 18.9154C72.0457 18.9019 73.0059 19.1338 73.8652 19.5895C74.6684 20.0158 75.3427 20.6495 75.8179 21.4247C76.2948 22.2202 76.5403 23.1329 76.5268 24.0602C76.5416 25.0042 76.2963 25.934 75.8179 26.7479C75.3474 27.5325 74.6724 28.1745 73.8652 28.605C73.0056 29.0593 72.0453 29.2897 71.0731 29.2747ZM71.0731 27.2046C71.6287 27.2147 72.1773 27.0798 72.6649 26.8132C73.1268 26.5558 73.5078 26.1748 73.7652 25.7129C74.0388 25.212 74.1767 24.6483 74.1653 24.0776C74.1772 23.5097 74.0392 22.9487 73.7652 22.4511C73.5058 21.9952 73.1249 21.6203 72.6649 21.3682C72.1688 21.1089 71.6154 20.9788 71.0557 20.9898C70.4964 20.9819 69.9438 21.1118 69.4466 21.3682C68.981 21.6117 68.5959 21.9848 68.3376 22.4424C68.0715 22.9394 67.9382 23.4966 67.9506 24.0602C67.9402 24.6319 68.0733 25.1971 68.3376 25.7042C68.5905 26.1746 68.9762 26.5603 69.4466 26.8132C69.9469 27.0793 70.5066 27.214 71.0731 27.2046Z" fill="#23222B"/>
<path d="M77.6967 15.6624H80.1147V29.04H77.6967V15.6624ZM79.4972 24.5692V22.66H81.3325C81.8833 22.6838 82.4308 22.5623 82.9199 22.3077C83.3232 22.0706 83.6309 21.6998 83.7897 21.2596C83.9783 20.7116 84.0667 20.1341 84.0506 19.5548V19.1199H86.4686V19.5548C86.4951 20.4949 86.2763 21.4257 85.8337 22.2555C85.4315 22.9783 84.8268 23.5678 84.0941 23.9516C83.2847 24.3555 82.389 24.5556 81.4847 24.5344L79.4972 24.5692ZM84.6029 28.6399C84.6109 27.9678 84.4745 27.3019 84.2028 26.6871C83.9555 26.123 83.5603 25.6361 83.059 25.2781C82.55 24.922 81.9405 24.7376 81.3194 24.7519H79.4841V22.8426H81.4803C82.4402 22.8363 83.3834 23.0936 84.2071 23.5863C85.0695 24.0994 85.7816 24.8306 86.2718 25.7063C86.7619 26.5819 87.0128 27.5712 86.9992 28.5746V29.0661H84.6029V28.6399Z" fill="#23222B"/>
<path d="M51.7244 21.4161C51.2755 20.6473 50.6281 20.0134 49.8499 19.5809C49.039 19.131 48.1243 18.9016 47.197 18.9155C46.5907 18.9143 45.9888 19.0188 45.4183 19.2242C44.8833 19.422 44.3893 19.7169 43.9614 20.094V15.6668H41.5477V23.9299C41.5319 24.8984 41.7719 25.854 42.2435 26.7002C42.698 27.5034 43.3685 28.1633 44.1788 28.6051C45.0382 29.0695 46.0028 29.3047 46.9796 29.2879C47.9604 29.3059 48.9299 29.0755 49.7977 28.6181C50.6016 28.1883 51.269 27.542 51.7244 26.7524C52.1878 25.9365 52.425 25.0116 52.4115 24.0734C52.4249 23.1462 52.1875 22.2326 51.7244 21.4292V21.4161ZM49.7064 25.726C49.4491 26.1879 49.068 26.5689 48.6061 26.8263C48.1087 27.0833 47.5569 27.2175 46.997 27.2175C46.4371 27.2175 45.8853 27.0833 45.3879 26.8263C44.9249 26.5678 44.5449 26.1833 44.2919 25.7173C44.0174 25.2136 43.8795 24.6469 43.8918 24.0734C43.8772 23.5079 44.0154 22.949 44.2919 22.4556C44.5489 22.0026 44.9288 21.6317 45.3879 21.3857C45.8771 21.1245 46.4251 20.9928 46.9796 21.003C47.5398 20.9917 48.0936 21.1234 48.5887 21.3857C49.0511 21.6357 49.435 22.009 49.6977 22.4643C49.9765 22.9603 50.1177 23.5219 50.1065 24.0908C50.1179 24.6614 49.98 25.2251 49.7064 25.726Z" fill="#23222B"/>
<path d="M19.2977 39.9995C18.8421 40.0079 18.3923 39.897 17.993 39.6777C17.622 39.4714 17.3116 39.1715 17.0927 38.8079C16.9245 38.5265 16.8136 38.2147 16.7663 37.8904C16.719 37.566 16.7362 37.2355 16.8171 36.9179C16.8979 36.6002 17.0407 36.3017 17.2373 36.0394C17.4339 35.7771 17.6803 35.5562 17.9626 35.3895C18.3092 35.2012 18.6931 35.0914 19.087 35.0681C19.4808 35.0448 19.875 35.1085 20.2414 35.2547C20.5432 35.3848 20.8176 35.5707 21.0503 35.8027L20.7068 36.1245C20.5196 35.9406 20.2999 35.7931 20.0587 35.6896C19.7999 35.5815 19.5216 35.5282 19.2412 35.533C18.8897 35.5279 18.5436 35.6197 18.2409 35.7983C17.9457 35.9774 17.7027 36.2308 17.5363 36.5333C17.3639 36.8471 17.2735 37.1994 17.2735 37.5575C17.2735 37.9156 17.3639 38.2679 17.5363 38.5817C17.7035 38.8828 17.9483 39.1336 18.2452 39.308C18.5421 39.4854 18.8823 39.5772 19.2281 39.5733C19.5106 39.5761 19.7906 39.5198 20.0501 39.408C20.2999 39.2994 20.526 39.1428 20.7155 38.947L21.059 39.2688C20.839 39.4925 20.5775 39.6712 20.2893 39.7951C19.9707 39.9323 19.6271 40.0019 19.2803 39.9995H19.2977ZM20.585 38.0076H21.1069V39.9299H20.585V38.0076Z" fill="#23222B"/>
<path d="M23.5815 35.5853V39.4472H26.6258V39.9212H23.0683V35.0982H26.5475V35.5722L23.5815 35.5853ZM23.5119 37.2248H26.2474V37.7076H23.5119V37.2248Z" fill="#23222B"/>
<path d="M28.5524 37.1683C28.5441 36.7774 28.6322 36.3906 28.809 36.0419C28.97 35.7326 29.2179 35.4771 29.5222 35.3069C29.8482 35.1383 30.2099 35.0504 30.5769 35.0504C30.9439 35.0504 31.3055 35.1383 31.6315 35.3069C31.9359 35.4771 32.1838 35.7326 32.3447 36.0419C32.5215 36.3906 32.6097 36.7774 32.6013 37.1683V39.9299H32.0708V37.1683C32.0757 36.8679 32.0117 36.5703 31.8837 36.2985C31.7639 36.0647 31.5799 35.8701 31.3532 35.7374C31.1145 35.6092 30.8478 35.542 30.5769 35.542C30.306 35.542 30.0392 35.6092 29.8006 35.7374C29.5741 35.869 29.3911 36.064 29.2743 36.2985C29.1464 36.5703 29.0824 36.8679 29.0873 37.1683V39.9299H28.5524V37.1683Z" fill="#23222B"/>
<path d="M35.0759 35.5853V39.4472H38.1202V39.9212H34.5627V35.0982H38.0419V35.5722L35.0759 35.5853ZM35.0063 37.2248H37.7419V37.7076H35.0063V37.2248Z" fill="#23222B"/>
<path d="M45.9702 37.1683C45.9613 36.7788 46.0495 36.3932 46.2268 36.0462C46.3877 35.7358 46.6355 35.4788 46.94 35.3069C47.2649 35.1332 47.6285 35.045 47.9968 35.0503C48.3639 35.0438 48.7264 35.1321 49.0493 35.3069C49.3547 35.4776 49.6029 35.7349 49.7625 36.0462C49.9398 36.3932 50.028 36.7788 50.0191 37.1683V39.9299H49.4885V37.1683C49.4967 36.8676 49.4326 36.5693 49.3015 36.2985C49.1832 36.0626 48.9989 35.8662 48.7709 35.7331C48.5352 35.5994 48.2678 35.5317 47.9968 35.5374C47.7245 35.5318 47.4556 35.5994 47.2183 35.7331C46.993 35.8667 46.8116 36.0632 46.6964 36.2985C46.5654 36.5693 46.5012 36.8676 46.5094 37.1683V39.9299H45.9702V37.1683ZM46.2181 38.3121L46.479 37.8293H49.5712L49.8103 38.3121H46.2181Z" fill="#23222B"/>
<path d="M55.838 35.5853H51.9718V35.0982H55.838V35.5853ZM53.6287 35.5113H54.1724V39.9299H53.6287V35.5113Z" fill="#23222B"/>
<path d="M58.3214 35.1112H57.7908V39.9299H58.3214V35.1112Z" fill="#23222B"/>
<path d="M62.7704 39.9995C62.3221 40.0056 61.8799 39.8947 61.4875 39.6777C61.117 39.4738 60.8089 39.1732 60.5959 38.8079C60.3847 38.4156 60.2741 37.977 60.2741 37.5314C60.2741 37.0859 60.3847 36.6473 60.5959 36.255C60.8094 35.8901 61.1174 35.5896 61.4875 35.3852C61.8829 35.1739 62.3243 35.0634 62.7726 35.0634C63.2209 35.0634 63.6623 35.1739 64.0577 35.3852C64.4282 35.5891 64.7363 35.8897 64.9493 36.255C65.1605 36.6473 65.2711 37.0859 65.2711 37.5314C65.2711 37.977 65.1605 38.4156 64.9493 38.8079C64.7358 39.1728 64.4278 39.4733 64.0577 39.6777C63.6588 39.8982 63.2087 40.0092 62.753 39.9995H62.7704ZM62.753 39.5168C63.1043 39.5232 63.451 39.4361 63.7577 39.2645C64.0566 39.1073 64.3052 38.8692 64.4752 38.5774C64.6476 38.2601 64.7345 37.9034 64.7275 37.5423C64.735 37.1826 64.648 36.8272 64.4752 36.5116C64.3145 36.2132 64.0715 35.9671 63.775 35.8027C63.4677 35.6345 63.123 35.5463 62.7726 35.5463C62.4222 35.5463 62.0775 35.6345 61.7702 35.8027C61.4769 35.9698 61.236 36.2153 61.0743 36.5116C60.9036 36.828 60.8168 37.1829 60.8221 37.5423C60.8172 37.9031 60.904 38.2593 61.0743 38.5774C61.2372 38.8728 61.4779 39.1179 61.7702 39.2863C62.0753 39.4575 62.4205 39.5446 62.7704 39.5385" fill="#23222B"/>
<path d="M67.2238 37.1683C67.2141 36.7778 67.3007 36.3909 67.476 36.0419C67.6386 35.7322 67.888 35.4768 68.1936 35.3069C68.5196 35.1383 68.8812 35.0504 69.2482 35.0504C69.6152 35.0504 69.9769 35.1383 70.3029 35.3069C70.6063 35.4783 70.8539 35.7334 71.0161 36.0419C71.1929 36.3906 71.281 36.7774 71.2727 37.1683V39.9299H70.7378V37.1683C70.7434 36.8673 70.6779 36.5693 70.5464 36.2985C70.4296 36.064 70.2467 35.869 70.0202 35.7374C69.7807 35.6091 69.5133 35.542 69.2417 35.542C68.9701 35.542 68.7027 35.6091 68.4632 35.7374C68.2371 35.868 68.0552 36.0635 67.9414 36.2985C67.8114 36.5696 67.7473 36.8677 67.7544 37.1683V39.9299H67.2194L67.2238 37.1683Z" fill="#23222B"/>
<path d="M43.3869 39.9299L41.8169 38.2295L42.3823 38.1338L44.0175 39.9299H43.3869Z" fill="#23222B"/>
<path d="M43.5739 35.8809C43.4225 35.6232 43.2028 35.4125 42.9389 35.2721C42.6346 35.113 42.295 35.0337 41.9517 35.0415H40.0816V39.9298H40.634V38.3685H41.7038C42.0898 38.3786 42.4735 38.3075 42.8302 38.1598C43.1216 38.0383 43.371 37.8342 43.5478 37.5727C43.7127 37.313 43.7974 37.0104 43.7913 36.7029C43.7926 36.4145 43.7176 36.1309 43.5739 35.8809ZM43.0824 37.3291C42.965 37.5097 42.7972 37.6519 42.5997 37.7379C42.3644 37.8419 42.1089 37.8924 41.8517 37.8858H40.634V35.533H41.9387C42.1796 35.5277 42.4177 35.5846 42.6302 35.6983C42.8205 35.7986 42.9799 35.949 43.0912 36.1332C43.1955 36.3127 43.2495 36.517 43.2477 36.7246C43.2515 36.9391 43.1942 37.1503 43.0824 37.3335" fill="#23222B"/>
</svg>
