<svg width="52" height="52" viewBox="0 0 52 52" fill="none" xmlns="http://www.w3.org/2000/svg">
<g clip-path="url(#clip0_2492_3656)">
<circle cx="26" cy="26" r="26" fill="#409945"/>
<path d="M33.9125 17.8617H33.8375C33.575 17.8617 33.3125 17.8617 33.05 17.8617V16.9992C33.05 15.7242 32 14.6367 30.6875 14.6367H19.3625C18.05 14.6742 17 15.7242 17 16.9992V29.8242C17 30.3117 17.1875 30.7617 17.525 31.1367L23 36.7617C23.3375 37.1367 23.825 37.3242 24.35 37.3242H31.2125C32.225 37.3242 33.0875 36.4992 33.0875 35.4492V35.1117L34.8875 31.4742C34.9625 31.3617 34.9625 31.2492 34.9625 31.0992L35 18.9492C35 18.3867 34.5125 17.8992 33.9125 17.8617ZM33.3125 20.8992H31.2125V19.5117C31.925 19.5117 32.6 19.5117 33.3125 19.5117V20.8992ZM22.925 34.2492L19.85 31.0992H22.925V34.2492ZM31.2125 35.6742H24.6125V30.4617C24.6125 29.8617 24.125 29.4117 23.5625 29.4117H18.6875V16.9992C18.6875 16.6242 18.9875 16.3242 19.3625 16.3242H30.7625C31.1375 16.3242 31.4375 16.6242 31.4375 16.9992V17.8242C31.175 17.8242 30.95 17.8242 30.6875 17.8242C30.05 17.8242 29.5625 18.3117 29.5625 18.9117L29.525 31.0992C29.525 31.2492 29.5625 31.3617 29.6 31.4742L31.4375 35.1117V35.4492C31.4 35.5617 31.325 35.6742 31.2125 35.6742ZM32.225 33.0492L31.175 30.9117V22.5867H33.275V30.9117L32.225 33.0492Z" fill="white"/>
</g>
<defs>
<clipPath id="clip0_2492_3656">
<rect width="52" height="52" fill="white"/>
</clipPath>
</defs>
</svg>
