<svg width="52" height="52" viewBox="0 0 52 52" fill="none" xmlns="http://www.w3.org/2000/svg">
<g clip-path="url(#clip0_2492_3652)">
<circle cx="26" cy="26" r="26" fill="#409945"/>
<path d="M23 34.5L25.6727 29.7714C25.8024 29.5419 25.9163 29.3404 26.0182 29.1622M26.0182 29.1622C26.3341 28.6097 26.535 28.2806 26.7358 28.0336C28.3978 25.9885 31.3618 25.5845 33.5106 27.1101C33.8516 27.3522 34.2309 27.7309 34.985 28.485M26.0182 29.1622L25.5 29C24.3045 28.7609 23.7067 28.6413 23.1581 28.653C21.6898 28.6842 20.3096 29.3593 19.3835 30.4991C19.0375 30.925 18.7649 31.4702 18.2196 32.5607L18.1098 32.7804L17.9887 32.9849M34.985 28.485C35 27.7605 35 26.939 35 26C35 22.2503 35 20.3754 34.0451 19.0611C33.7367 18.6366 33.3634 18.2633 32.9389 17.9549C31.6246 17 29.7497 17 26 17C22.2503 17 20.3754 17 19.0611 17.9549C18.6366 18.2633 18.2633 18.6366 17.9549 19.0611C17 20.3754 17 22.2503 17 26C17 29.7497 17 31.6246 17.9549 32.9389C17.9661 32.9543 17.9774 32.9697 17.9887 32.9849M34.985 28.485C34.9401 30.6536 34.7609 31.9537 34.0451 32.9389C33.7367 33.3634 33.3634 33.7367 32.9389 34.0451C31.6246 35 29.7497 35 26 35C22.2503 35 20.3754 35 19.0611 34.0451C18.652 33.7479 18.2905 33.3904 17.9887 32.9849M23 23C23 24.1046 23.8954 25 25 25C26.1046 25 27 24.1046 27 23C27 21.8954 26.1046 21 25 21C23.8954 21 23 21.8954 23 23Z" stroke="white" stroke-width="1.5" stroke-linecap="round"/>
</g>
<defs>
<clipPath id="clip0_2492_3652">
<rect width="52" height="52" fill="white"/>
</clipPath>
</defs>
</svg>
