<svg width="32" height="32" viewBox="0 0 32 32" fill="none" xmlns="http://www.w3.org/2000/svg">
<rect width="32" height="32" rx="16" fill="#FFC329"/>
<path d="M11.8412 23.3165L12.0729 22.6032L11.8412 23.3165ZM9.43354 20.9088L10.1468 20.6771L9.43354 20.9088ZM22.5665 20.9088L21.8532 20.6771L22.5665 20.9088ZM20.1588 23.3165L19.9271 22.6032L20.1588 23.3165ZM20.1588 13.1835L19.9271 13.8968L20.1588 13.1835ZM22.5665 15.5912L21.8532 15.8229L22.5665 15.5912ZM11.8412 13.1835L12.0729 13.8968L11.8412 13.1835ZM9.43354 15.5912L10.1468 15.8229L9.43354 15.5912ZM14.5 13.75H17.5V12.25H14.5V13.75ZM17.5 22.75H14.5V24.25H17.5V22.75ZM14.5 22.75C13.0457 22.75 12.4964 22.7407 12.0729 22.6032L11.6094 24.0298C12.3157 24.2593 13.1624 24.25 14.5 24.25V22.75ZM8.5 18.25C8.5 19.5876 8.49075 20.4343 8.72025 21.1406L10.1468 20.6771C10.0093 20.2536 10 19.7043 10 18.25H8.5ZM12.0729 22.6032C11.1596 22.3064 10.4436 21.5904 10.1468 20.6771L8.72025 21.1406C9.16538 22.5105 10.2395 23.5846 11.6094 24.0298L12.0729 22.6032ZM22 18.25C22 19.7043 21.9907 20.2536 21.8532 20.6771L23.2798 21.1406C23.5093 20.4343 23.5 19.5876 23.5 18.25H22ZM17.5 24.25C18.8376 24.25 19.6843 24.2593 20.3906 24.0298L19.9271 22.6032C19.5036 22.7407 18.9543 22.75 17.5 22.75V24.25ZM21.8532 20.6771C21.5564 21.5904 20.8404 22.3064 19.9271 22.6032L20.3906 24.0298C21.7605 23.5846 22.8346 22.5105 23.2798 21.1406L21.8532 20.6771ZM23.5 18.25C23.5 16.9124 23.5093 16.0657 23.2798 15.3594L21.8532 15.8229C21.9907 16.2464 22 16.7957 22 18.25H23.5ZM19.9271 13.8968C20.8404 14.1936 21.5564 14.9096 21.8532 15.8229L23.2798 15.3594C22.8346 13.9895 21.7605 12.9154 20.3906 12.4702L19.9271 13.8968ZM10 18.25C10 16.7957 10.0093 16.2464 10.1468 15.8229L8.72025 15.3594C8.49075 16.0657 8.5 16.9124 8.5 18.25H10ZM11.6094 12.4702C10.2395 12.9154 9.16538 13.9895 8.72025 15.3594L10.1468 15.8229C10.4436 14.9096 11.1596 14.1936 12.0729 13.8968L11.6094 12.4702ZM19 12.25V13H20.5V12.25H19ZM13 13V12.25H11.5V13H13ZM16 9.25C17.6569 9.25 19 10.5931 19 12.25H20.5C20.5 9.76472 18.4853 7.75 16 7.75V9.25ZM16 7.75C13.5147 7.75 11.5 9.76472 11.5 12.25H13C13 10.5931 14.3431 9.25 16 9.25V7.75ZM13.75 18.25C13.75 19.4926 14.7574 20.5 16 20.5V19C15.5858 19 15.25 18.6642 15.25 18.25H13.75ZM16 20.5C17.2426 20.5 18.25 19.4926 18.25 18.25H16.75C16.75 18.6642 16.4142 19 16 19V20.5ZM18.25 18.25C18.25 17.0074 17.2426 16 16 16V17.5C16.4142 17.5 16.75 17.8358 16.75 18.25H18.25ZM16 16C14.7574 16 13.75 17.0074 13.75 18.25H15.25C15.25 17.8358 15.5858 17.5 16 17.5V16ZM14.5 12.25C13.4489 12.25 12.709 12.2474 12.1254 12.3457L12.3746 13.8249C12.8034 13.7526 13.3886 13.75 14.5 13.75V12.25ZM12.1254 12.3457C11.9468 12.3758 11.7764 12.416 11.6094 12.4702L12.0729 13.8968C12.1607 13.8683 12.2585 13.8444 12.3746 13.8249L12.1254 12.3457ZM11.5 13V13.0853H13V13H11.5ZM17.5 13.75C18.6114 13.75 19.1966 13.7526 19.6254 13.8249L19.8746 12.3457C19.291 12.2474 18.5511 12.25 17.5 12.25V13.75ZM19.6254 13.8249C19.7415 13.8444 19.8393 13.8683 19.9271 13.8968L20.3906 12.4702C20.2236 12.416 20.0532 12.3758 19.8746 12.3457L19.6254 13.8249ZM19 13V13.0853H20.5V13H19Z" fill="#FAFAFA"/>
</svg>
