<svg width="52" height="52" viewBox="0 0 52 52" fill="none" xmlns="http://www.w3.org/2000/svg">
<g clip-path="url(#clip0_1964_986)">
<circle cx="26" cy="26" r="26" fill="#FFD748" fill-opacity="0.85"/>
<g clip-path="url(#clip1_1964_986)">
<path d="M35.8998 20.4133C34.3623 17.7508 31.7748 15.7633 28.7748 15.0133C27.7998 14.7883 26.8998 14.6758 25.9998 14.6758C25.0623 14.6758 24.0873 14.7883 23.1498 15.0508C20.1873 15.8008 17.6373 17.7508 16.1373 20.4508C15.1623 22.1758 14.6748 24.0508 14.6748 26.0008V26.2633C14.7123 28.3258 15.3498 30.3508 16.4373 32.1133C18.2373 34.9633 21.1998 36.8383 24.4998 37.2133C24.9498 37.2883 25.4373 37.3258 25.9998 37.3258C26.4498 37.3258 26.9373 37.2883 27.3873 37.2508C30.7623 36.8383 33.7248 34.9633 35.5623 32.1133C36.6873 30.3883 37.2873 28.3633 37.3623 26.2633V26.0008C37.3623 24.1258 36.8373 22.1758 35.8998 20.4133ZM33.2373 25.4758C33.1248 24.2383 32.8248 23.0383 32.3373 21.9133H34.7373C35.2623 23.0383 35.5623 24.2758 35.6373 25.4758H33.2373ZM16.3623 25.4758C16.4373 24.2383 16.7373 23.0383 17.2623 21.9133H19.4373C18.9498 23.0383 18.6873 24.2383 18.5748 25.4758H16.3623ZM21.3123 21.9133H25.1373V25.4758H20.2998C20.4123 24.2008 20.7498 23.0008 21.3123 21.9133ZM29.4498 20.2258H26.8248V17.1133C27.6873 17.7883 28.5498 18.8383 29.4498 20.2258ZM25.1748 17.0758V20.2258H22.3623C23.2998 18.8008 24.2373 17.7508 25.1748 17.0758ZM25.1748 27.1633V30.7258H21.4248C20.8248 29.6383 20.4498 28.4008 20.3373 27.1633H25.1748ZM25.1748 32.4133V35.0008C24.2373 34.3633 23.2998 33.4633 22.4748 32.4133H25.1748ZM26.8623 35.0008V32.3758H29.7123C28.9248 33.4633 27.9498 34.3633 26.8623 35.0008ZM26.8623 30.7258V27.1633H31.5873C31.5123 28.4008 31.2123 29.6008 30.6873 30.7258H26.8623ZM26.8623 25.4758V21.9133H30.4998C31.0623 23.0008 31.4373 24.2383 31.5498 25.4758H26.8623ZM33.7248 20.2258H31.4373C30.6123 18.8383 29.7873 17.7133 28.9623 16.8508C30.8748 17.4508 32.5623 18.6508 33.7248 20.2258ZM22.8123 16.8883C21.9873 17.7508 21.1623 18.8758 20.3373 20.1883H18.3123C19.4373 18.6883 21.0123 17.5258 22.8123 16.8883ZM16.3998 27.1633H18.6123C18.7248 28.4008 19.0248 29.6008 19.5123 30.7258H17.5623C16.9248 29.6008 16.5498 28.4008 16.3998 27.1633ZM18.7623 32.4133H20.4498C21.0498 33.3883 21.7998 34.2883 22.5498 35.0383C21.0873 34.4758 19.7748 33.5758 18.7623 32.4133ZM29.7123 34.9258C30.4623 34.2133 31.1373 33.3508 31.6623 32.4508C31.6623 32.4508 31.6623 32.4133 31.6998 32.4133H33.2373C32.2623 33.5008 31.0623 34.3633 29.7123 34.9258ZM34.4373 30.7258H32.4873C32.9373 29.6008 33.1998 28.4008 33.2373 27.1633H35.5623C35.4498 28.4008 35.0373 29.6008 34.4373 30.7258Z" fill="white"/>
</g>
</g>
<defs>
<clipPath id="clip0_1964_986">
<rect width="52" height="52" fill="white"/>
</clipPath>
<clipPath id="clip1_1964_986">
<rect width="24" height="24" fill="white" transform="translate(14 14)"/>
</clipPath>
</defs>
</svg>
