<svg width="52" height="52" viewBox="0 0 52 52" fill="none" xmlns="http://www.w3.org/2000/svg">
<g clip-path="url(#clip0_1964_991)">
<circle cx="26" cy="26" r="26" fill="#2CCBDE"/>
<path d="M33.1995 21.1996C32.6745 19.7746 31.662 18.6496 30.312 18.0121C29.1495 17.4871 27.8745 17.3371 26.637 17.6371L25.887 15.5746C25.737 15.1996 25.437 14.8621 25.062 14.7121C24.687 14.5621 24.2745 14.5621 23.937 14.7121C19.5495 16.6996 17.412 21.8371 19.062 26.3746C20.2245 29.5621 22.9995 31.7746 26.1495 32.3371V35.5621H24.1245C23.6745 35.5621 23.262 35.9371 23.262 36.4246C23.262 36.9121 23.637 37.2871 24.1245 37.2871H29.8245C30.2745 37.2871 30.687 36.9121 30.687 36.4246C30.687 35.9371 30.312 35.5621 29.8245 35.5621H27.837V32.4871C28.662 32.4871 29.4495 32.3746 30.2745 32.1496C30.6495 32.0371 30.987 31.7746 31.1745 31.4371C31.362 31.0621 31.3995 30.6496 31.2495 30.2746L30.462 28.0996C32.937 26.8996 34.1745 23.9371 33.1995 21.1996ZM20.637 25.8871C19.287 22.2496 20.937 18.1246 24.387 16.4371L25.062 18.3121C24.087 18.8746 23.2995 19.7371 22.812 20.7871C22.1745 22.1371 22.0995 23.6746 22.6245 25.0996C23.1495 26.5246 24.162 27.6496 25.512 28.2871C26.262 28.6246 27.087 28.8121 27.8745 28.8121C28.1745 28.8121 28.4745 28.7746 28.7745 28.7371L29.487 30.7246C25.812 31.5871 21.9495 29.5246 20.637 25.8871ZM29.262 26.8246C28.287 27.1996 27.1995 27.1246 26.262 26.7121C25.3245 26.2621 24.5745 25.4746 24.237 24.4996C23.8995 23.5246 23.937 22.4371 24.3495 21.4996C24.7995 20.5621 25.587 19.8121 26.562 19.4746C27.012 19.3246 27.462 19.2496 27.912 19.2496C28.4745 19.2496 29.037 19.3621 29.562 19.6246C30.4995 20.0746 31.2495 20.8621 31.587 21.8371C32.337 23.8246 31.287 26.0746 29.262 26.8246Z" fill="white"/>
</g>
<defs>
<clipPath id="clip0_1964_991">
<rect width="52" height="52" fill="white"/>
</clipPath>
</defs>
</svg>
