<svg width="52" height="52" viewBox="0 0 52 52" fill="none" xmlns="http://www.w3.org/2000/svg">
<g clip-path="url(#clip0_1964_985)">
<circle cx="26" cy="26" r="26" fill="#2CCBDE"/>
<path d="M35.4498 17.5254H27.1998C26.7498 17.5254 26.3373 17.6754 25.9998 17.9004C25.6623 17.6754 25.2498 17.5254 24.7998 17.5254H16.5498C15.4998 17.5254 14.6748 18.3879 14.6748 19.4004V31.6254C14.6748 32.6754 15.5373 33.5004 16.5498 33.5004H25.1748V33.6129C25.1748 34.0629 25.5498 34.4754 26.0373 34.4754C26.4873 34.4754 26.8998 34.1004 26.8998 33.6129V33.5004H35.5248C36.5748 33.5004 37.3998 32.6379 37.3998 31.6254V19.4004C37.3623 18.3504 36.4998 17.5254 35.4498 17.5254ZM16.5498 31.8504C16.4373 31.8504 16.3623 31.7754 16.3623 31.6629V19.4004C16.3623 19.2879 16.4373 19.2129 16.5498 19.2129H24.8373C25.0248 19.2129 25.1748 19.3629 25.1748 19.5504V31.8504H16.5498ZM35.6748 31.6254C35.6748 31.7379 35.5998 31.8129 35.4873 31.8129H26.8623V19.5504C26.8623 19.3629 27.0123 19.2129 27.1998 19.2129H35.4873C35.5998 19.2129 35.6748 19.2879 35.6748 19.4004V31.6254Z" fill="white"/>
<path d="M19.3625 22.8871H22.1375C22.5875 22.8871 23 22.5121 23 22.0246C23 21.5371 22.625 21.1621 22.1375 21.1621H19.3625C18.9125 21.1621 18.5 21.5371 18.5 22.0246C18.5 22.5121 18.875 22.8871 19.3625 22.8871Z" fill="white"/>
<path d="M29.7502 22.8871H32.5252C32.9752 22.8871 33.3877 22.5121 33.3877 22.0246C33.3877 21.5371 33.0127 21.1621 32.5252 21.1621H29.7502C29.3002 21.1621 28.8877 21.5371 28.8877 22.0246C28.8877 22.5121 29.3002 22.8871 29.7502 22.8871Z" fill="white"/>
<path d="M32.5994 24.2754H29.8244C29.3744 24.2754 28.9619 24.6504 28.9619 25.1379C28.9619 25.6254 29.3369 26.0004 29.8244 26.0004H32.5994C33.0494 26.0004 33.4619 25.6254 33.4619 25.1379C33.4619 24.6504 33.0494 24.2754 32.5994 24.2754Z" fill="white"/>
<path d="M22.1746 24.2754H19.3996C18.9496 24.2754 18.5371 24.6504 18.5371 25.1379C18.5371 25.6254 18.9121 26.0004 19.3996 26.0004H22.1746C22.6246 26.0004 23.0371 25.6254 23.0371 25.1379C23.0371 24.6504 22.6621 24.2754 22.1746 24.2754Z" fill="white"/>
<path d="M22.1746 27.5762H19.3996C18.9496 27.5762 18.5371 27.9512 18.5371 28.4387C18.5371 28.9262 18.9121 29.3012 19.3996 29.3012H22.1746C22.6246 29.3012 23.0371 28.9262 23.0371 28.4387C23.0371 27.9512 22.6621 27.5762 22.1746 27.5762Z" fill="white"/>
<path d="M32.5994 27.5762H29.8244C29.3744 27.5762 28.9619 27.9512 28.9619 28.4387C28.9619 28.9262 29.3369 29.3012 29.8244 29.3012H32.5994C33.0494 29.3012 33.4619 28.9262 33.4619 28.4387C33.4619 27.9512 33.0494 27.5762 32.5994 27.5762Z" fill="white"/>
</g>
<defs>
<clipPath id="clip0_1964_985">
<rect width="52" height="52" fill="white"/>
</clipPath>
</defs>
</svg>
