<svg width="52" height="52" viewBox="0 0 52 52" fill="none" xmlns="http://www.w3.org/2000/svg">
<g clip-path="url(#clip0_1964_992)">
<circle cx="26" cy="26" r="26" fill="#FFDD64"/>
<path d="M35.0373 17.5242H26.8623V16.4367C26.8623 15.9867 26.4873 15.5742 25.9998 15.5742C25.5498 15.5742 25.1373 15.9492 25.1373 16.4367V17.4867H16.9623C15.6873 17.4867 14.6748 18.4992 14.6748 19.7742V27.3867C14.6748 28.6617 15.6873 29.6742 16.9623 29.6742H20.1873L17.1123 35.1117C16.8873 35.5242 17.0373 36.0492 17.4498 36.2742C17.5623 36.3492 17.7123 36.3867 17.8623 36.3867C18.1623 36.3867 18.4623 36.2367 18.6123 35.9367L22.0998 29.6742H25.1373V35.5242C25.1373 35.9742 25.5123 36.3867 25.9998 36.3867C26.4498 36.3867 26.8623 36.0117 26.8623 35.5242V29.7117H29.9748L33.4998 35.9742C33.6498 36.2367 33.9498 36.3867 34.2498 36.3867C34.3998 36.3867 34.5498 36.3492 34.6623 36.2742C35.0748 36.0492 35.2248 35.5242 34.9998 35.1117L31.9248 29.6742H35.1123C36.3873 29.6742 37.3998 28.6617 37.3998 27.3867V19.8117C37.3623 18.5367 36.3123 17.5242 35.0373 17.5242ZM35.6748 27.4242C35.6748 27.7617 35.4123 28.0242 35.0748 28.0242H16.9623C16.6248 28.0242 16.3623 27.7617 16.3623 27.4242V19.8117C16.3623 19.4742 16.6248 19.2117 16.9623 19.2117H35.0748C35.4123 19.2117 35.6748 19.4742 35.6748 19.8117V27.4242Z" fill="white"/>
</g>
<defs>
<clipPath id="clip0_1964_992">
<rect width="52" height="52" fill="white"/>
</clipPath>
</defs>
</svg>
