<svg width="20" height="20" viewBox="0 0 20 20" fill="none" xmlns="http://www.w3.org/2000/svg">
<path d="M6.56992 18.9935L5.71794 18.8553C5.54211 18.8269 5.43847 18.7199 5.48751 18.6178L9.01976 11.2794C9.06881 11.1773 9.25265 11.1171 9.42848 11.1458L10.2805 11.284C10.4563 11.3127 10.5599 11.4194 10.5109 11.5215L6.97864 18.86C6.92959 18.9621 6.74544 19.0222 6.56992 18.9935Z" fill="#124460"/>
<path d="M14.2984 18.9935L15.1504 18.8553C15.3262 18.8269 15.4299 18.7199 15.3805 18.6178L11.8483 11.2794C11.7992 11.1773 11.6151 11.1171 11.4396 11.1458L10.5876 11.284C10.4117 11.3127 10.3081 11.4194 10.3571 11.5215L13.8894 18.86C13.9387 18.9621 14.1226 19.0222 14.2984 18.9935Z" fill="#124460"/>
<path d="M10.3039 15.3505C14.3377 15.3505 17.6077 12.138 17.6077 8.17523C17.6077 4.21246 14.3377 1 10.3039 1C6.27005 1 3 4.21246 3 8.17523C3 12.138 6.27005 15.3505 10.3039 15.3505Z" fill="#F6653D"/>
<path d="M10.3036 12.9106C12.9658 12.9106 15.124 10.7904 15.124 8.17503C15.124 5.55964 12.9658 3.43945 10.3036 3.43945C7.64132 3.43945 5.48315 5.55964 5.48315 8.17503C5.48315 10.7904 7.64132 12.9106 10.3036 12.9106Z" fill="#FFAA22"/>
<path d="M10.3039 10.8094C11.7845 10.8094 12.9848 9.63022 12.9848 8.17568C12.9848 6.72113 11.7845 5.54199 10.3039 5.54199C8.82332 5.54199 7.62305 6.72113 7.62305 8.17568C7.62305 9.63022 8.82332 10.8094 10.3039 10.8094Z" fill="white"/>
<path d="M10.3041 9.61782C11.1151 9.61782 11.7727 8.9719 11.7727 8.17512C11.7727 7.37834 11.1151 6.73242 10.3041 6.73242C9.49297 6.73242 8.83545 7.37834 8.83545 8.17512C8.83545 8.9719 9.49297 9.61782 10.3041 9.61782Z" fill="#CB5840"/>
</svg>
