<svg width="52" height="52" viewBox="0 0 52 52" fill="none" xmlns="http://www.w3.org/2000/svg">
<g clip-path="url(#clip0_1964_989)">
<circle cx="26" cy="26" r="26" fill="#FF7575"/>
<g clip-path="url(#clip1_1964_989)">
<path d="M36.9499 18.8758C35.7499 17.6008 34.4749 16.3258 33.1999 15.0883C32.9374 14.8258 32.6374 14.6758 32.2999 14.6758C31.9624 14.6758 31.6249 14.7883 31.3999 15.0508L17.2624 29.0758C17.0374 29.3008 16.8874 29.5633 16.7749 29.8258L14.7124 36.1258C14.5999 36.4258 14.6749 36.7258 14.8249 36.9508C15.0124 37.1758 15.2749 37.3258 15.6124 37.3258H15.7624L22.1749 35.1883C22.4749 35.0758 22.7374 34.9258 22.9249 34.7008L36.9874 20.6758C37.2124 20.4508 37.3624 20.1133 37.3624 19.7758C37.3624 19.4383 37.2124 19.1383 36.9499 18.8758ZM21.7249 33.5383C21.6874 33.5758 21.6499 33.5758 21.6124 33.6133L16.7749 35.2258L18.3874 30.3883C18.3874 30.3508 18.4249 30.3133 18.4624 30.2758L28.7749 20.0008L32.0374 23.2633L21.7249 33.5383ZM33.1999 22.0633L29.9374 18.8008L32.2249 16.5133C33.3124 17.5633 34.3999 18.6883 35.4499 19.7758L33.1999 22.0633Z" fill="white"/>
</g>
</g>
<defs>
<clipPath id="clip0_1964_989">
<rect width="52" height="52" fill="white"/>
</clipPath>
<clipPath id="clip1_1964_989">
<rect width="24" height="24" fill="white" transform="translate(14 14)"/>
</clipPath>
</defs>
</svg>
