<svg width="52" height="52" viewBox="0 0 52 52" fill="none" xmlns="http://www.w3.org/2000/svg">
<g clip-path="url(#clip0_1964_990)">
<circle cx="26" cy="26" r="26" fill="#49CD50"/>
<path d="M35.0745 36.1242L31.062 27.8742C32.2245 26.9742 33.162 25.7742 33.7245 24.3867C33.912 23.9367 33.687 23.4492 33.237 23.2992C32.787 23.1117 32.2995 23.3367 32.1495 23.7867C31.7745 24.7992 31.0995 25.6617 30.312 26.3367L28.737 23.0742C29.3745 22.3992 29.7495 21.4992 29.7495 20.4867C29.7495 18.7242 28.512 17.2242 26.8245 16.8492V15.4992C26.8245 15.0492 26.4495 14.6367 25.962 14.6367C25.512 14.6367 25.0995 15.0117 25.0995 15.4992V16.8492C23.4495 17.2242 22.1745 18.7242 22.1745 20.4867C22.1745 21.4992 22.587 22.3992 23.2245 23.0742L21.6495 26.3367C20.862 25.6617 20.187 24.7992 19.812 23.7867C19.6245 23.3367 19.137 23.1492 18.7245 23.2992C18.2745 23.4867 18.087 23.9742 18.237 24.3867C18.7995 25.8117 19.737 27.0117 20.8995 27.8742L16.9245 36.1242C16.737 36.5367 16.887 37.0617 17.2995 37.2492C17.412 37.3242 17.562 37.3242 17.6745 37.3242C17.9745 37.3242 18.2745 37.1367 18.4245 36.8367L22.362 28.7367C23.487 29.2617 24.687 29.5617 25.962 29.5617C27.237 29.5617 28.4745 29.2617 29.562 28.7367L33.537 36.8742C33.687 37.1742 33.987 37.3617 34.287 37.3617C34.3995 37.3617 34.5495 37.3242 34.662 37.2867C35.112 37.0617 35.262 36.5367 35.0745 36.1242ZM25.9995 18.4242C27.1245 18.4242 28.062 19.3242 28.062 20.4492C28.062 21.5742 27.1245 22.5117 25.9995 22.5117C24.8745 22.5117 23.937 21.6117 23.937 20.4867C23.937 19.3617 24.8745 18.4242 25.9995 18.4242ZM25.9995 27.9117C24.987 27.9117 24.012 27.6867 23.112 27.2367L24.687 23.9742C25.0995 24.1242 25.512 24.1992 25.962 24.1992C26.412 24.1992 26.862 24.1242 27.237 23.9742L28.812 27.2367C27.987 27.6867 27.012 27.9117 25.9995 27.9117Z" fill="white"/>
</g>
<defs>
<clipPath id="clip0_1964_990">
<rect width="52" height="52" fill="white"/>
</clipPath>
</defs>
</svg>
