<svg width="20" height="20" viewBox="0 0 20 20" fill="none" xmlns="http://www.w3.org/2000/svg">
<path d="M9.99988 17.5002C14.1402 17.5002 17.4966 14.1439 17.4966 10.0035C17.4966 5.86323 14.1402 2.50684 9.99988 2.50684C5.85956 2.50684 2.50317 5.86323 2.50317 10.0035C2.50317 14.1439 5.85956 17.5002 9.99988 17.5002Z" fill="#FFD258"/>
<path d="M9.99997 15.6259C8.88794 15.6259 7.80088 15.2962 6.87626 14.6784C5.95164 14.0605 5.23099 13.1824 4.80543 12.155C4.37988 11.1277 4.26853 9.99715 4.48548 8.90649C4.70243 7.81583 5.23792 6.81399 6.02424 6.02766C6.81057 5.24134 7.81241 4.70584 8.90307 4.4889C9.99374 4.27195 11.1242 4.3833 12.1516 4.80885C13.179 5.23441 14.0571 5.95506 14.6749 6.87968C15.2927 7.8043 15.6225 8.89136 15.6225 10.0034C15.6225 11.4946 15.0301 12.9247 13.9757 13.9791C12.9213 15.0335 11.4912 15.6259 9.99997 15.6259Z" fill="#FFC219"/>
<path d="M10.2433 4.62497C11.6744 4.6249 13.051 5.17321 14.0901 6.15711C13.5814 5.58337 12.9607 5.11975 12.2663 4.79473C11.5718 4.46972 10.8182 4.29019 10.0517 4.26718C9.28532 4.24417 8.52229 4.37817 7.80957 4.66093C7.09684 4.9437 6.44949 5.36926 5.9073 5.91145C5.36511 6.45364 4.93955 7.10099 4.65679 7.81372C4.37402 8.52644 4.24002 9.28947 4.26303 10.0559C4.28604 10.8223 4.46557 11.5759 4.79058 12.2704C5.11559 12.9649 5.57922 13.5856 6.15296 14.0942C5.4032 13.295 4.90334 12.2941 4.71486 11.2145C4.52638 10.135 4.65748 9.0239 5.09204 8.01788C5.52661 7.01185 6.2457 6.15475 7.16089 5.55196C8.07608 4.94917 9.14748 4.62697 10.2433 4.62497Z" fill="#D59C00"/>
<path d="M14.4967 18.7434C16.8421 18.7434 18.7434 16.8421 18.7434 14.4967C18.7434 12.1513 16.8421 10.25 14.4967 10.25C12.1513 10.25 10.25 12.1513 10.25 14.4967C10.25 16.8421 12.1513 18.7434 14.4967 18.7434Z" fill="#F1B100"/>
<path d="M14.4968 17.6816C13.8669 17.6816 13.2511 17.4948 12.7273 17.1448C12.2035 16.7948 11.7953 16.2974 11.5542 15.7154C11.3131 15.1334 11.2501 14.493 11.373 13.8752C11.4959 13.2573 11.7992 12.6898 12.2446 12.2444C12.6901 11.799 13.2576 11.4956 13.8754 11.3727C14.4933 11.2498 15.1337 11.3129 15.7157 11.554C16.2976 11.795 16.7951 12.2033 17.1451 12.727C17.495 13.2508 17.6818 13.8666 17.6818 14.4966C17.6818 15.3413 17.3463 16.1514 16.749 16.7487C16.1516 17.346 15.3415 17.6816 14.4968 17.6816Z" fill="#FFCB3A"/>
<path d="M14.6347 11.4502C15.4454 11.4502 16.2252 11.7608 16.8138 12.3181C16.5257 11.9931 16.1741 11.7305 15.7807 11.5464C15.3873 11.3623 14.9604 11.2606 14.5262 11.2475C14.092 11.2345 13.6598 11.3104 13.2561 11.4706C12.8523 11.6308 12.4856 11.8718 12.1785 12.179C11.8713 12.4861 11.6303 12.8528 11.4701 13.2566C11.3099 13.6603 11.234 14.0925 11.247 14.5267C11.2601 14.9609 11.3618 15.3878 11.5459 15.7812C11.73 16.1746 11.9926 16.5262 12.3176 16.8143C11.8929 16.3616 11.6098 15.7946 11.503 15.183C11.3962 14.5715 11.4705 13.9421 11.7167 13.3722C11.9628 12.8023 12.3702 12.3168 12.8886 11.9753C13.407 11.6339 14.014 11.4513 14.6347 11.4502Z" fill="#D59C00"/>
</svg>
