<svg width="24" height="24" viewBox="0 0 24 24" fill="none" xmlns="http://www.w3.org/2000/svg">
<circle cx="12" cy="12" r="12" fill="#F04D49"/>
<path fill-rule="evenodd" clip-rule="evenodd" d="M6.22913 10.0198C5.92362 11.3223 5.92362 12.6777 6.22913 13.9802C6.67033 15.8611 8.13894 17.3297 10.0198 17.7709C11.3223 18.0764 12.6777 18.0764 13.9802 17.7709C15.8611 17.3297 17.3297 15.8611 17.7709 13.9802C18.0764 12.6777 18.0764 11.3223 17.7709 10.0198C17.3297 8.13894 15.8611 6.67033 13.9802 6.22913C12.6777 5.92362 11.3223 5.92362 10.0198 6.22913C8.13894 6.67033 6.67033 8.13894 6.22913 10.0198ZM11.6447 13.8784C11.4885 14.0346 11.2352 14.0346 11.079 13.8784L9.48354 12.2829C9.40853 12.2079 9.36639 12.1062 9.36639 12.0001C9.36639 11.894 9.40853 11.7922 9.48354 11.7172L11.079 10.1217C11.2352 9.96553 11.4885 9.96553 11.6447 10.1217C11.8009 10.278 11.8009 10.5312 11.6447 10.6874L10.7321 11.6001H14.2337C14.4546 11.6001 14.6337 11.7792 14.6337 12.0001C14.6337 12.221 14.4546 12.4001 14.2337 12.4001L10.7321 12.4001L11.6447 13.3127C11.8009 13.4689 11.8009 13.7222 11.6447 13.8784Z" fill="white"/>
</svg>
