<svg width="84" height="84" viewBox="0 0 84 84" fill="none" xmlns="http://www.w3.org/2000/svg">
<g filter="url(#filter0_d_2173_4723)">
<circle cx="42" cy="42" r="22" fill="white"/>
</g>
<path fill-rule="evenodd" clip-rule="evenodd" d="M42.3373 38.2624C42.9738 37.626 42.9738 36.5942 42.3373 35.9578C41.7009 35.3214 40.6691 35.3214 40.0327 35.9578L35.1438 40.8467C35.1389 40.8515 35.1341 40.8564 35.1293 40.8614C34.8429 41.155 34.6665 41.5564 34.6665 41.999C34.6665 42.4496 34.8494 42.8575 35.1451 43.1526L40.0327 48.0402C40.6691 48.6766 41.7009 48.6766 42.3373 48.0402C42.9738 47.4038 42.9738 46.372 42.3373 45.7356L40.2304 43.6286L47.7035 43.6286C48.6036 43.6286 49.3332 42.899 49.3332 41.999C49.3332 41.099 48.6036 40.3694 47.7035 40.3694L40.2304 40.3694L42.3373 38.2624Z" fill="#23222B"/>
<defs>
<filter id="filter0_d_2173_4723" x="0" y="0" width="84" height="84" filterUnits="userSpaceOnUse" color-interpolation-filters="sRGB">
<feFlood flood-opacity="0" result="BackgroundImageFix"/>
<feColorMatrix in="SourceAlpha" type="matrix" values="0 0 0 0 0 0 0 0 0 0 0 0 0 0 0 0 0 0 127 0" result="hardAlpha"/>
<feOffset/>
<feGaussianBlur stdDeviation="10"/>
<feComposite in2="hardAlpha" operator="out"/>
<feColorMatrix type="matrix" values="0 0 0 0 0 0 0 0 0 0 0 0 0 0 0 0 0 0 0.1 0"/>
<feBlend mode="normal" in2="BackgroundImageFix" result="effect1_dropShadow_2173_4723"/>
<feBlend mode="normal" in="SourceGraphic" in2="effect1_dropShadow_2173_4723" result="shape"/>
</filter>
</defs>
</svg>
