<svg width="24" height="24" viewBox="0 0 24 24" fill="none" xmlns="http://www.w3.org/2000/svg">
<circle cx="12" cy="12" r="12" fill="#0073FA"/>
<path d="M11.9999 6C10.3772 6 9.06165 7.30477 9.06165 8.91429C9.06165 10.5238 10.3772 11.8286 11.9999 11.8286C13.6227 11.8286 14.9382 10.5238 14.9382 8.91429C14.9382 7.30477 13.6227 6 11.9999 6Z" fill="white"/>
<path d="M13.7339 13.1251C12.5852 12.9433 11.4147 12.9433 10.2659 13.1251L10.1428 13.1446C8.52424 13.4008 7.33325 14.7855 7.33325 16.4112C7.33325 17.2887 8.05043 18 8.93511 18H15.0647C15.9494 18 16.6666 17.2887 16.6666 16.4112C16.6666 14.7855 15.4756 13.4008 13.857 13.1446L13.7339 13.1251Z" fill="white"/>
</svg>
