<svg width="24" height="24" viewBox="0 0 24 24" fill="none" xmlns="http://www.w3.org/2000/svg">
<circle cx="12" cy="12" r="12" fill="#FFBB37"/>
<path d="M11.6286 6C10.0191 6 8.71429 7.30477 8.71429 8.91429C8.71429 10.5238 10.0191 11.8286 11.6286 11.8286C13.2381 11.8286 14.5429 10.5238 14.5429 8.91429C14.5429 7.30477 13.2381 6 11.6286 6Z" fill="white"/>
<path d="M13.3484 13.1251C12.2091 12.9433 11.0481 12.9433 9.90875 13.1251L9.78663 13.1446C8.18126 13.4008 7 14.7855 7 16.4112C7 17.2887 7.71132 18 8.58878 18H14.6684C15.5458 18 16.2571 17.2887 16.2571 16.4112C16.2571 14.7855 15.0759 13.4008 13.4705 13.1446L13.3484 13.1251Z" fill="white"/>
<path fill-rule="evenodd" clip-rule="evenodd" d="M17.1143 10.1143C17.3983 10.1143 17.6286 10.3445 17.6286 10.6286V11.4857H18.4857C18.7697 11.4857 19 11.716 19 12C19 12.284 18.7697 12.5143 18.4857 12.5143H17.6286V13.3714C17.6286 13.6555 17.3983 13.8857 17.1143 13.8857C16.8303 13.8857 16.6 13.6555 16.6 13.3714V12.5143H15.7429C15.4588 12.5143 15.2286 12.284 15.2286 12C15.2286 11.716 15.4588 11.4857 15.7429 11.4857H16.6V10.6286C16.6 10.3445 16.8303 10.1143 17.1143 10.1143Z" fill="white"/>
</svg>
