<svg width="20" height="20" viewBox="0 0 20 20" fill="none" xmlns="http://www.w3.org/2000/svg">
<path d="M10.9375 11.4062H9.0625V16.0219H10.9375V11.4062Z" fill="#FFCE47"/>
<path d="M9.24688 11.4062H9.0625V16.0219H9.24688V11.4062Z" fill="#FFDA75"/>
<path d="M9.0625 11.4062V13.3781C9.40363 13.5169 9.76044 13.6134 10.125 13.6656C10.23 13.6799 10.3263 13.7315 10.3963 13.811C10.4663 13.8905 10.5053 13.9925 10.5062 14.0984V16.0203H10.9375V11.4062H9.0625Z" fill="#F69652"/>
<path d="M14.1562 11.5967H12.4187V10.3467H14.1562C14.7527 10.3459 15.3245 10.1085 15.7463 9.68676C16.1681 9.26498 16.4054 8.69316 16.4062 8.09668V6.90918C16.4062 6.8263 16.3733 6.74681 16.3147 6.68821C16.2561 6.6296 16.1766 6.59668 16.0937 6.59668H13.9265V5.34668H16.0937C16.5081 5.34668 16.9055 5.5113 17.1986 5.80433C17.4916 6.09735 17.6562 6.49478 17.6562 6.90918V8.09668C17.655 9.02456 17.2858 9.91408 16.6297 10.5702C15.9736 11.2263 15.0841 11.5954 14.1562 11.5967Z" fill="#FFCE47"/>
<path d="M17.1156 5.73145C17.5843 6.27363 17.5 6.72676 17.5 7.94082C17.4988 8.6978 17.2527 9.43407 16.7984 10.0396C16.3441 10.6451 15.7061 11.0873 14.9796 11.3002C14.9149 11.3191 14.8464 11.3206 14.7809 11.3046C14.7155 11.2887 14.6553 11.2558 14.6066 11.2092C14.5578 11.1627 14.5222 11.1042 14.5032 11.0395C14.4842 10.9748 14.4825 10.9063 14.4984 10.8408C14.5424 10.6634 14.5753 10.4833 14.5968 10.3018C14.3062 10.3596 14.3078 10.3455 12.4187 10.3455V11.5955H14.1562C15.0842 11.5955 15.9742 11.227 16.6305 10.5709C17.2869 9.91489 17.6558 9.02506 17.6562 8.09707C17.6562 6.94863 17.7796 6.30801 17.1156 5.73145Z" fill="#F69652"/>
<path d="M7.57969 11.5967H5.84375C4.91587 11.5954 4.02635 11.2263 3.37025 10.5702C2.71414 9.91408 2.34499 9.02456 2.34375 8.09668V6.90918C2.34375 6.49478 2.50837 6.09735 2.8014 5.80433C3.09442 5.5113 3.49185 5.34668 3.90625 5.34668H6.07344V6.59668H3.90625C3.82337 6.59668 3.74388 6.6296 3.68528 6.68821C3.62667 6.74681 3.59375 6.8263 3.59375 6.90918V8.09668C3.59458 8.69316 3.8319 9.26498 4.25367 9.68676C4.67545 10.1085 5.24727 10.3459 5.84375 10.3467H7.57969V11.5967Z" fill="#FFCE47"/>
<path d="M5.91717 5.34668V6.44043H5.43905L5.44999 5.34668L5.31249 6.09355C5.29558 6.18985 5.24527 6.2771 5.17039 6.33997C5.09552 6.40284 5.00088 6.43731 4.90311 6.4373H3.74999C3.66711 6.4373 3.58762 6.47023 3.52902 6.52883C3.47041 6.58744 3.43749 6.66692 3.43749 6.7498C3.43749 7.93574 3.29999 8.80449 4.17967 9.60137C3.80401 9.19014 3.5951 8.65366 3.59374 8.09668V6.90918C3.59374 6.8263 3.62666 6.74681 3.68527 6.68821C3.74387 6.6296 3.82336 6.59668 3.90624 6.59668H6.07342V5.34668H5.91717Z" fill="#F69652"/>
<path d="M6.0749 5.34668H5.59521V6.59668H6.0749V5.34668Z" fill="#F69652"/>
<path d="M5.67349 10.3389C5.7244 10.6056 5.79971 10.8671 5.89849 11.1201C5.91228 11.1548 5.91737 11.1923 5.91331 11.2293C5.90924 11.2664 5.89615 11.3019 5.87518 11.3328C5.85421 11.3636 5.826 11.3888 5.79301 11.4062C5.76003 11.4237 5.72328 11.4327 5.68599 11.4326C4.79606 11.4331 3.93964 11.0932 3.29224 10.4826C4.50005 11.767 5.79224 11.5889 7.57817 11.5889V10.3389C5.62505 10.3467 5.8313 10.3498 5.67349 10.3389Z" fill="#F69652"/>
<path d="M14.55 3.79688H5.44995V8.92187C5.44995 10.1288 5.92941 11.2863 6.78284 12.1398C7.63628 12.9932 8.79379 13.4727 10.0007 13.4727C11.2077 13.4727 12.3652 12.9932 13.2186 12.1398C14.0721 11.2863 14.5515 10.1288 14.5515 8.92187L14.55 3.79688Z" fill="#FFC219"/>
<path d="M15.9375 6.44043H15.3125C15.1666 6.4404 15.0256 6.38777 14.9154 6.2922C14.8052 6.19663 14.7331 6.06452 14.7125 5.92012L14.6312 5.34668H13.9265V6.59668C16.2578 6.59668 16.1265 6.58105 16.2218 6.6248C16.1972 6.56998 16.1572 6.52342 16.1068 6.49072C16.0564 6.45802 15.9976 6.44056 15.9375 6.44043Z" fill="#F69652"/>
<path d="M5.74058 8.92188V3.79688H5.44995V8.92188C5.44984 9.53162 5.57233 10.1352 5.81013 10.6966C6.04794 11.2581 6.3962 11.766 6.83422 12.1902C7.27224 12.6143 7.79107 12.9461 8.35988 13.1657C8.92868 13.3854 9.53584 13.4884 10.1453 13.4688C8.96443 13.431 7.84457 12.9355 7.02255 12.0869C6.20052 11.2383 5.74079 10.1033 5.74058 8.92188Z" fill="#FFCE47"/>
<path d="M13.947 3.79688V4.72344H5.74072L13.3142 5.14063C13.4838 5.15175 13.6429 5.22709 13.759 5.35132C13.8751 5.47555 13.9395 5.63934 13.9392 5.80938V8.92188C13.9391 10.075 13.5011 11.185 12.7139 12.0276C11.9267 12.8702 10.849 13.3825 9.69853 13.4609C10.3201 13.5025 10.9435 13.4159 11.5302 13.2065C12.1168 12.9972 12.6543 12.6696 13.1091 12.244C13.564 11.8185 13.9266 11.304 14.1745 10.7325C14.4224 10.1611 14.5502 9.54478 14.5501 8.92188V3.79688H13.947Z" fill="#F47C27"/>
<path d="M14.375 2.5H5.625C5.27982 2.5 5 2.77982 5 3.125V4.09687C5 4.44205 5.27982 4.72187 5.625 4.72187H14.375C14.7202 4.72187 15 4.44205 15 4.09687V3.125C15 2.77982 14.7202 2.5 14.375 2.5Z" fill="#FFCE47"/>
<path d="M14.7296 2.61133C14.8718 2.81758 14.8405 2.90039 14.8405 3.93789C14.8405 4.10365 14.7747 4.26262 14.6575 4.37983C14.5403 4.49704 14.3813 4.56289 14.2155 4.56289C4.73897 4.56289 5.34053 4.60977 5.11084 4.45195C5.36865 4.82539 4.91084 4.72227 14.3749 4.72227C14.5407 4.72227 14.6996 4.65642 14.8168 4.53921C14.9341 4.422 14.9999 4.26303 14.9999 4.09727C14.9999 3.1082 15.0702 2.8457 14.7296 2.61133Z" fill="#F69652"/>
<path d="M13.8889 17.5002H6.11083C6.04732 17.5001 5.9849 17.4836 5.92959 17.4524C5.87427 17.4212 5.82791 17.3763 5.79496 17.322C5.762 17.2677 5.74357 17.2059 5.74142 17.1424C5.73928 17.0789 5.75349 17.016 5.7827 16.9596L6.83583 14.9408C6.89831 14.8212 6.99236 14.721 7.10777 14.651C7.22319 14.581 7.35555 14.544 7.49051 14.5439H12.5077C12.6427 14.544 12.775 14.581 12.8904 14.651C13.0058 14.721 13.0999 14.8212 13.1624 14.9408L14.2186 16.9596C14.2479 17.0161 14.2621 17.0792 14.2599 17.1428C14.2577 17.2064 14.2391 17.2684 14.206 17.3227C14.1728 17.377 14.1263 17.4219 14.0707 17.453C14.0152 17.4841 13.9526 17.5003 13.8889 17.5002Z" fill="#23222B"/>
<path d="M5.86874 16.9596L6.92186 14.9408C6.98435 14.8212 7.0784 14.721 7.19381 14.651C7.30922 14.581 7.44159 14.544 7.57655 14.5439C7.24842 14.5439 6.98905 14.6471 6.83592 14.9408L5.78124 16.9596C5.75203 17.016 5.73781 17.0789 5.73996 17.1424C5.7421 17.2059 5.76054 17.2677 5.79349 17.322C5.82644 17.3763 5.87281 17.4212 5.92812 17.4524C5.98344 17.4836 6.04585 17.5001 6.10936 17.5002H6.1953C6.13192 17.4998 6.0697 17.4832 6.0146 17.4518C5.9595 17.4205 5.91335 17.3756 5.88058 17.3214C5.84781 17.2671 5.82952 17.2054 5.82744 17.142C5.82537 17.0787 5.83959 17.0158 5.86874 16.9596Z" fill="#4D4D4D"/>
<path d="M14.2187 16.9596L13.164 14.9408C13.1015 14.8212 13.0074 14.721 12.892 14.651C12.7766 14.581 12.6442 14.544 12.5093 14.5439H7.49209L12.253 14.933C12.3676 14.9424 12.4777 14.9815 12.5725 15.0464C12.6673 15.1114 12.7435 15.1999 12.7937 15.3033L13.4343 16.6283C13.4575 16.6749 13.4687 16.7265 13.4669 16.7785C13.4651 16.8306 13.4503 16.8813 13.4239 16.9261C13.3976 16.971 13.3604 17.0086 13.3158 17.0354C13.2712 17.0623 13.2206 17.0775 13.1687 17.0799L6.11084 17.5002H13.889C13.9526 17.5003 14.0152 17.4841 14.0707 17.453C14.1263 17.4219 14.1729 17.377 14.206 17.3227C14.2391 17.2684 14.2577 17.2064 14.2599 17.1428C14.2621 17.0792 14.2479 17.0161 14.2187 16.9596Z" fill="black"/>
<path d="M14.375 2.5H5.625C5.45924 2.5 5.30027 2.56585 5.18306 2.68306C5.06585 2.80027 5 2.95924 5 3.125V4.09687L5.225 3.02031C5.24191 2.93805 5.28617 2.86393 5.35057 2.81002C5.41498 2.75612 5.49573 2.7256 5.57969 2.72344L14.375 2.5Z" fill="#FFDA75"/>
</svg>
