<svg width="11" height="8" viewBox="0 0 11 8" fill="none" xmlns="http://www.w3.org/2000/svg">
<path d="M4.6748 0.295372C4.6284 0.340575 4.43 0.511251 4.2668 0.670238C3.2404 1.60234 1.5604 4.0339 1.0476 5.30658C0.965202 5.49985 0.790802 5.9885 0.779602 6.24959C0.779602 6.49976 0.837202 6.73824 0.954002 6.96581C1.1172 7.24949 1.374 7.47706 1.6772 7.60175C1.8876 7.68203 2.5172 7.80672 2.5284 7.80672C3.2172 7.93142 4.3364 8 5.5732 8C6.7516 8 7.8252 7.93142 8.5244 7.82932C8.5356 7.81763 9.318 7.69294 9.586 7.55655C10.0756 7.30638 10.3796 6.81773 10.3796 6.29479V6.24959C10.3676 5.90901 10.0636 5.19279 10.0524 5.19279C9.5388 3.9887 7.9412 1.61325 6.8796 0.658549C6.8796 0.658549 6.6068 0.389673 6.4364 0.272771C6.1916 0.090404 5.8884 0 5.5852 0C5.2468 0 4.9316 0.102095 4.6748 0.295372Z" fill="#23222B"/>
</svg>
