<svg width="24" height="24" viewBox="0 0 24 24" fill="none" xmlns="http://www.w3.org/2000/svg">
<rect width="24" height="24" rx="12" fill="url(#paint0_linear_1973_3560)"/>
<path d="M12.0017 6.09861C13.9256 6.09861 14.1514 6.10719 14.9119 6.14149C15.6151 6.17294 15.9953 6.29014 16.2497 6.39019C16.587 6.52169 16.8272 6.67606 17.0787 6.92762C17.3303 7.17918 17.4875 7.41931 17.6161 7.75663C17.7133 8.01105 17.8334 8.39125 17.8648 9.09448C17.8991 9.85488 17.9077 10.0807 17.9077 12.0046C17.9077 13.9285 17.8991 14.1543 17.8648 14.9147C17.8334 15.6179 17.7162 15.9981 17.6161 16.2526C17.4846 16.5899 17.3303 16.83 17.0787 17.0816C16.8272 17.3331 16.587 17.4904 16.2497 17.619C15.9953 17.7162 15.6151 17.8362 14.9119 17.8677C14.1514 17.902 13.9256 17.9106 12.0017 17.9106C10.0779 17.9106 9.85203 17.902 9.09163 17.8677C8.3884 17.8362 8.00819 17.719 7.75377 17.619C7.41645 17.4875 7.17633 17.3331 6.92476 17.0816C6.6732 16.83 6.51598 16.5899 6.38734 16.2526C6.29014 15.9981 6.17008 15.6179 6.13863 14.9147C6.10433 14.1543 6.09575 13.9285 6.09575 12.0046C6.09575 10.0807 6.10433 9.85488 6.13863 9.09448C6.17008 8.39125 6.28728 8.01105 6.38734 7.75663C6.51883 7.41931 6.6732 7.17918 6.92476 6.92762C7.17633 6.67606 7.41645 6.51883 7.75377 6.39019C8.00819 6.293 8.3884 6.17294 9.09163 6.14149C9.85203 6.10433 10.0807 6.09861 12.0017 6.09861ZM12.0017 4.80078C10.0464 4.80078 9.80057 4.80936 9.03159 4.84366C8.26547 4.87796 7.74234 5.00089 7.28495 5.17812C6.81042 5.36108 6.41021 5.60978 6.00999 6.00999C5.60978 6.4102 5.36394 6.81327 5.17812 7.28495C5.00089 7.74234 4.87796 8.26547 4.84366 9.03445C4.80936 9.80057 4.80078 10.0464 4.80078 12.0017C4.80078 13.9571 4.80936 14.2029 4.84366 14.9719C4.87796 15.738 5.00089 16.2611 5.17812 16.7214C5.36108 17.1959 5.60978 17.5961 6.00999 17.9963C6.41021 18.3965 6.81328 18.6424 7.28495 18.8282C7.74234 19.0054 8.26547 19.1284 9.03445 19.1627C9.80343 19.197 10.0464 19.2055 12.0046 19.2055C13.9628 19.2055 14.2058 19.197 14.9747 19.1627C15.7409 19.1284 16.264 19.0054 16.7242 18.8282C17.1988 18.6452 17.599 18.3965 17.9992 17.9963C18.3994 17.5961 18.6453 17.1931 18.8311 16.7214C19.0083 16.264 19.1312 15.7409 19.1655 14.9719C19.1998 14.2029 19.2084 13.9599 19.2084 12.0017C19.2084 10.0436 19.1998 9.80057 19.1655 9.03159C19.1312 8.26547 19.0083 7.74234 18.8311 7.28209C18.6481 6.80756 18.3994 6.40735 17.9992 6.00713C17.599 5.60692 17.1959 5.36108 16.7242 5.17527C16.2669 4.99803 15.7437 4.87511 14.9747 4.8408C14.2029 4.80936 13.9571 4.80078 12.0017 4.80078Z" fill="white"/>
<path d="M12.0018 8.30469C9.96075 8.30469 8.30273 9.95985 8.30273 12.0038C8.30273 14.0477 9.9579 15.7029 12.0018 15.7029C14.0458 15.7029 15.7009 14.0477 15.7009 12.0038C15.7009 9.95985 14.0458 8.30469 12.0018 8.30469ZM12.0018 14.4022C10.6754 14.4022 9.60056 13.3273 9.60056 12.0009C9.60056 10.6745 10.6754 9.59966 12.0018 9.59966C13.3283 9.59966 14.4031 10.6745 14.4031 12.0009C14.4031 13.3273 13.3283 14.4022 12.0018 14.4022Z" fill="white"/>
<path d="M15.8467 9.0196C16.3235 9.0196 16.71 8.63308 16.71 8.15628C16.71 7.67949 16.3235 7.29297 15.8467 7.29297C15.3699 7.29297 14.9834 7.67949 14.9834 8.15628C14.9834 8.63308 15.3699 9.0196 15.8467 9.0196Z" fill="white"/>
<defs>
<linearGradient id="paint0_linear_1973_3560" x1="0" y1="0" x2="24" y2="24" gradientUnits="userSpaceOnUse">
<stop stop-color="#DFAE2F"/>
<stop offset="1" stop-color="#D82929"/>
</linearGradient>
</defs>
</svg>
