<svg width="137" height="32" viewBox="0 0 137 32" fill="none" xmlns="http://www.w3.org/2000/svg">
<g clip-path="url(#clip0_1938_882)">
<path d="M22.8048 5L43.9883 12.9254L24.1379 20.0156L3 12.0937L22.8048 5ZM22.8122 7.03975L8.60121 12.122L11.429 13.1838L24.1526 17.9404L27.0024 16.9152L14.2774 12.1621L17.0596 11.1676L29.7847 15.9243L32.6316 14.9097L19.9021 10.1507L22.7975 9.11725L35.5211 13.8739L38.3665 12.857L22.8122 7.03975Z" fill="#409945"/>
<path d="M37.0232 21.7958L24.0644 26.464L11.2629 21.7097V19.8151L24.0644 24.5835L34.626 20.7919V19.4789L24.0644 23.3413L11.2629 18.7097V13.2688L24.0644 18.0679L37.0232 13.4151V15.3357L24.0644 19.9826L13.6086 16.06V17.4285L24.0644 21.3346L37.0232 16.6982V21.7958Z" fill="#409945"/>
<path d="M5.67199 12.1515H4.93712V19.7018H5.67199V12.1515Z" fill="#409945"/>
<path d="M5.96594 18.0502H4.64317V20.6456H5.96594V18.0502Z" fill="#409945"/>
</g>
<path d="M57.9013 24.1829C61.3909 24.1829 63.7087 22.6204 64.1514 19.7557H61.1045C60.8701 21.0839 59.8805 21.8391 57.9794 21.8391C55.6356 21.8391 54.3334 20.3807 54.2293 17.8025H64.2035V16.891C64.2035 12.0211 61.1566 10.0158 57.771 10.0158C53.8907 10.0158 51 12.8284 51 17.0473V17.2556C51 21.5526 53.8907 24.1829 57.9013 24.1829ZM54.2813 15.6931C54.5939 13.5836 55.8699 12.3075 57.771 12.3075C59.7242 12.3075 60.9222 13.3492 61.0784 15.6931H54.2813Z" fill="#23222B"/>
<path d="M71.6797 24.1829C75.1694 24.1829 77.1226 22.5943 77.1226 19.8338C77.1226 16.9431 75.2215 16.1618 72.0183 15.667C69.8568 15.3024 69.2057 14.9118 69.2057 13.9222C69.2057 12.9586 70.013 12.3075 71.3672 12.3075C72.8256 12.3075 73.5288 12.8805 73.7892 14.1305H76.7059C76.3674 11.0575 74.1538 10.0158 71.3672 10.0158C68.8151 10.0158 66.2629 11.37 66.2629 14.1045C66.2629 16.6566 67.5911 17.6723 71.1849 18.2452C73.1902 18.5838 74.1017 19.0005 74.1017 20.1203C74.1017 21.2661 73.3465 21.8651 71.6537 21.8651C69.8047 21.8651 69.1015 21.0578 68.9453 19.6776H65.9764C66.1067 22.5683 68.164 24.1829 71.6797 24.1829Z" fill="#23222B"/>
<path d="M84.5223 24.1569C85.4859 24.1569 86.163 24.0006 86.6578 23.8183V21.3182C86.2151 21.5005 85.7463 21.5787 85.1213 21.5787C84.1317 21.5787 83.5588 21.0318 83.5588 19.8338V12.6721H86.5536V10.3023H83.5588V7.30739H80.4076V10.3023H78.5847V12.6721H80.4076V20.1203C80.4076 22.6985 81.8139 24.1569 84.5223 24.1569Z" fill="#23222B"/>
<path d="M94.0575 24.1829C96.2711 24.1829 97.7035 23.1152 98.3806 21.787V23.9225H101.532V10.3023H98.3806V18.4015C98.3806 20.563 96.8962 21.6568 95.2034 21.6568C93.3804 21.6568 92.521 20.7193 92.521 18.6619V10.3023H89.3699V19.0265C89.3699 22.6464 91.3752 24.1829 94.0575 24.1829Z" fill="#23222B"/>
<path d="M110.372 24.1829C112.378 24.1829 114.122 22.985 114.852 21.6307V23.9225H118.003V4H114.852V12.3857C114.096 11.0315 112.716 10.0158 110.503 10.0158C106.961 10.0158 104.383 12.7763 104.383 17.1254V17.3337C104.383 21.761 106.961 24.1829 110.372 24.1829ZM111.154 21.6828C109.122 21.6828 107.612 20.2505 107.612 17.2556V17.0473C107.612 14.1045 108.966 12.4898 111.284 12.4898C113.576 12.4898 114.956 13.9743 114.956 16.9691V17.1775C114.956 20.2245 113.341 21.6828 111.154 21.6828Z" fill="#23222B"/>
<path d="M123.258 28.5841H126.358L133.78 10.3023H130.707L127.373 19.0786L123.753 10.3023H120.342L125.732 22.5422L123.258 28.5841Z" fill="#23222B"/>
<defs>
<clipPath id="clip0_1938_882">
<rect width="40" height="30" fill="white" transform="translate(3 1)"/>
</clipPath>
</defs>
</svg>
