<svg width="25" height="24" viewBox="0 0 25 24" fill="none" xmlns="http://www.w3.org/2000/svg">
<path fill-rule="evenodd" clip-rule="evenodd" d="M9.81745 3.32481C6.84246 3.99738 4.50813 6.28371 3.79193 9.22642C3.40031 10.8355 3.40389 12.5287 3.79551 14.1378C4.5229 17.1265 6.66258 19.6138 9.53293 20.7728L9.65805 20.8233C10.9002 21.3249 12.3231 20.7208 12.8327 19.4902C12.973 19.1515 13.307 18.9268 13.6761 18.9268H14.7999C17.8564 18.9268 20.5154 16.8499 21.2328 13.9021C21.5891 12.4382 21.5891 10.9113 21.2328 9.44741L21.1387 9.06088C20.4472 6.21958 18.1933 4.01204 15.3209 3.36264L14.9173 3.27141C13.3166 2.90953 11.6543 2.90953 10.0536 3.27141L9.81745 3.32481ZM9.00194 8.36669C8.61716 8.36669 8.30524 8.67616 8.30524 9.05792C8.30524 9.43968 8.61716 9.74916 9.00194 9.74916H15.3884C15.7732 9.74916 16.0851 9.43968 16.0851 9.05792C16.0851 8.67616 15.7732 8.36669 15.3884 8.36669H9.00194ZM10.1631 11.8229C9.77834 11.8229 9.46642 12.1323 9.46642 12.5141C9.46642 12.8958 9.77834 13.2053 10.1631 13.2053H14.2272C14.612 13.2053 14.9239 12.8958 14.9239 12.5141C14.9239 12.1323 14.612 11.8229 14.2272 11.8229H10.1631Z" fill="white"/>
</svg>
