<svg width="40" height="40" viewBox="0 0 40 40" fill="none" xmlns="http://www.w3.org/2000/svg">
<path d="M13.958 21.875H11.458V28.0291H13.958V21.875Z" fill="#FFCE47"/>
<path d="M11.7038 21.875H11.458V28.0291H11.7038V21.875Z" fill="#FFDA75"/>
<path d="M11.458 21.875V24.5042C11.9129 24.6892 12.3886 24.8179 12.8747 24.8875C13.0146 24.9065 13.143 24.9753 13.2364 25.0813C13.3297 25.1873 13.3818 25.3233 13.383 25.4646V28.0271H13.958V21.875H11.458Z" fill="#F69652"/>
<path d="M18.2503 22.1302H15.9336V20.4635H18.2503C19.0456 20.4624 19.808 20.146 20.3703 19.5836C20.9327 19.0213 21.2491 18.2588 21.2502 17.4635V15.8802C21.2502 15.7697 21.2063 15.6637 21.1282 15.5856C21.0501 15.5074 20.9441 15.4635 20.8336 15.4635H17.944V13.7969H20.8336C21.3861 13.7969 21.916 14.0164 22.3067 14.4071C22.6974 14.7978 22.9169 15.3277 22.9169 15.8802V17.4635C22.9153 18.7007 22.4231 19.8867 21.5482 20.7615C20.6734 21.6363 19.4874 22.1285 18.2503 22.1302Z" fill="#FFCE47"/>
<path d="M22.1961 14.3086C22.8211 15.0315 22.7086 15.6357 22.7086 17.2544C22.707 18.2637 22.3789 19.2454 21.7732 20.0528C21.1675 20.8601 20.3167 21.4498 19.3482 21.7336C19.2619 21.7587 19.1705 21.7608 19.0832 21.7395C18.9959 21.7182 18.9158 21.6743 18.8508 21.6123C18.7858 21.5503 18.7382 21.4722 18.7129 21.386C18.6876 21.2998 18.6854 21.2084 18.7065 21.1211C18.7652 20.8845 18.809 20.6444 18.8378 20.4023C18.4503 20.4794 18.4523 20.4607 15.9336 20.4607V22.1273H18.2503C19.4876 22.1273 20.6742 21.6359 21.5493 20.7612C22.4244 19.8865 22.9164 18.7001 22.9169 17.4628C22.9169 15.9315 23.0815 15.0773 22.1961 14.3086Z" fill="#F69652"/>
<path d="M9.48123 22.1302H7.16665C5.92949 22.1285 4.74347 21.6363 3.86866 20.7615C2.99385 19.8867 2.50165 18.7007 2.5 17.4635V15.8802C2.5 15.3277 2.71949 14.7978 3.11019 14.4071C3.50089 14.0164 4.03079 13.7969 4.58333 13.7969H7.4729V15.4635H4.58333C4.47282 15.4635 4.36684 15.5074 4.2887 15.5856C4.21056 15.6637 4.16666 15.7697 4.16666 15.8802V17.4635C4.16776 18.2588 4.48419 19.0213 5.04656 19.5836C5.60892 20.146 6.37134 20.4624 7.16665 20.4635H9.48123V22.1302Z" fill="#FFCE47"/>
<path d="M7.26488 13.7969V15.2552H6.62738L6.64197 13.7969L6.45863 14.7927C6.43609 14.9211 6.36901 15.0374 6.26918 15.1213C6.16935 15.2051 6.04316 15.251 5.9128 15.251H4.37531C4.2648 15.251 4.15882 15.2949 4.08068 15.3731C4.00254 15.4512 3.95864 15.5572 3.95864 15.6677C3.95864 17.2489 3.77531 18.4073 4.94822 19.4698C4.44734 18.9215 4.16879 18.2062 4.16697 17.4635V15.8802C4.16697 15.7697 4.21087 15.6637 4.28901 15.5856C4.36715 15.5074 4.47313 15.4635 4.58364 15.4635H7.47321V13.7969H7.26488Z" fill="#F69652"/>
<path d="M7.47454 13.7969H6.83496V15.4635H7.47454V13.7969Z" fill="#F69652"/>
<path d="M6.93964 20.4531C7.00752 20.8088 7.10794 21.1575 7.23964 21.4948C7.25803 21.541 7.26481 21.591 7.2594 21.6404C7.25398 21.6899 7.23653 21.7372 7.20857 21.7783C7.1806 21.8194 7.14299 21.8531 7.09901 21.8763C7.05503 21.8995 7.00603 21.9116 6.95631 21.9115C5.76974 21.9121 4.62785 21.4589 3.76465 20.6448C5.37506 22.3573 7.09797 22.1198 9.47922 22.1198V20.4531C6.87506 20.4635 7.15006 20.4677 6.93964 20.4531Z" fill="#F69652"/>
<path d="M18.7749 11.7285H6.6416V18.5618C6.6416 20.1711 7.28087 21.7144 8.41879 22.8523C9.5567 23.9902 11.1 24.6295 12.7093 24.6295C14.3185 24.6295 15.8619 23.9902 16.9998 22.8523C18.1377 21.7144 18.777 20.1711 18.777 18.5618L18.7749 11.7285Z" fill="#FFC219"/>
<path d="M20.6246 15.2552H19.7913C19.5968 15.2552 19.4088 15.185 19.2619 15.0576C19.1149 14.9301 19.0188 14.754 18.9913 14.5615L18.8829 13.7969H17.9434V15.4635C21.0517 15.4635 20.8767 15.4427 21.0038 15.501C20.9709 15.4279 20.9177 15.3659 20.8504 15.3223C20.7832 15.2787 20.7048 15.2554 20.6246 15.2552Z" fill="#F69652"/>
<path d="M7.0291 18.5618V11.7285H6.6416V18.5618C6.64146 19.3748 6.80477 20.1795 7.12184 20.9281C7.43891 21.6767 7.90326 22.354 8.48729 22.9195C9.07131 23.4851 9.76309 23.9274 10.5215 24.2203C11.2799 24.5132 12.0894 24.6506 12.902 24.6243C11.3276 24.574 9.83442 23.9133 8.73839 22.7819C7.64236 21.6504 7.02938 20.1371 7.0291 18.5618Z" fill="#FFCE47"/>
<path d="M17.9709 11.7285V12.9639H7.0293L17.1272 13.5202C17.3534 13.535 17.5655 13.6355 17.7203 13.8011C17.8751 13.9667 17.961 14.1851 17.9605 14.4118V18.5618C17.9604 20.0993 17.3765 21.5794 16.3269 22.7028C15.2773 23.8263 13.8403 24.5094 12.3064 24.6139C13.1351 24.6692 13.9663 24.5538 14.7485 24.2747C15.5308 23.9956 16.2473 23.5588 16.8538 22.9914C17.4603 22.4239 17.9438 21.738 18.2743 20.976C18.6048 20.2141 18.7752 19.3924 18.7751 18.5618V11.7285H17.9709Z" fill="#F47C27"/>
<path d="M18.542 10H6.87532C6.41509 10 6.04199 10.3731 6.04199 10.8333V12.1292C6.04199 12.5894 6.41509 12.9625 6.87532 12.9625H18.542C19.0022 12.9625 19.3753 12.5894 19.3753 12.1292V10.8333C19.3753 10.3731 19.0022 10 18.542 10Z" fill="#FFCE47"/>
<path d="M19.0144 10.1484C19.204 10.4234 19.1623 10.5339 19.1623 11.9172C19.1623 12.1382 19.0745 12.3502 18.9183 12.5064C18.762 12.6627 18.55 12.7505 18.329 12.7505C5.69362 12.7505 6.4957 12.813 6.18945 12.6026C6.5332 13.1005 5.92279 12.963 18.5415 12.963C18.7625 12.963 18.9745 12.8752 19.1308 12.7189C19.287 12.5627 19.3748 12.3507 19.3748 12.1297C19.3748 10.8109 19.4686 10.4609 19.0144 10.1484Z" fill="#F69652"/>
<path d="M17.8939 30.0002H7.52309C7.43841 30.0001 7.3552 29.9782 7.28144 29.9365C7.20769 29.8949 7.14587 29.8351 7.10193 29.7627C7.058 29.6903 7.03342 29.6078 7.03056 29.5232C7.02769 29.4386 7.04665 29.3546 7.08559 29.2794L8.48975 26.5878C8.57307 26.4283 8.69847 26.2946 8.85235 26.2013C9.00623 26.1081 9.18272 26.0587 9.36267 26.0586H16.0522C16.2322 26.0587 16.4087 26.1081 16.5625 26.2013C16.7164 26.2946 16.8418 26.4283 16.9251 26.5878L18.3335 29.2794C18.3725 29.3548 18.3914 29.4389 18.3885 29.5237C18.3855 29.6085 18.3608 29.6911 18.3166 29.7636C18.2724 29.836 18.2103 29.8959 18.1363 29.9373C18.0622 29.9788 17.9787 30.0004 17.8939 30.0002Z" fill="#23222B"/>
<path d="M7.20031 29.2794L8.60447 26.5878C8.68778 26.4283 8.81318 26.2946 8.96707 26.2013C9.12095 26.1081 9.29743 26.0587 9.47738 26.0586C9.03988 26.0586 8.69405 26.1961 8.48988 26.5878L7.08364 29.2794C7.04469 29.3546 7.02574 29.4386 7.0286 29.5232C7.03146 29.6078 7.05604 29.6903 7.09998 29.7627C7.14392 29.8351 7.20573 29.8949 7.27949 29.9365C7.35324 29.9782 7.43646 30.0001 7.52114 30.0002H7.63572C7.55122 29.9997 7.46826 29.9775 7.39479 29.9358C7.32132 29.894 7.25979 29.8341 7.2161 29.7618C7.17241 29.6895 7.14801 29.6071 7.14525 29.5227C7.14248 29.4382 7.16144 29.3545 7.20031 29.2794Z" fill="#4D4D4D"/>
<path d="M18.3333 29.2794L16.9271 26.5878C16.8438 26.4283 16.7184 26.2946 16.5645 26.2013C16.4106 26.1081 16.2341 26.0587 16.0542 26.0586H9.36461L15.7125 26.5773C15.8652 26.5899 16.012 26.642 16.1384 26.7286C16.2648 26.8152 16.3665 26.9332 16.4333 27.0711L17.2875 28.8378C17.3185 28.8999 17.3334 28.9687 17.331 29.038C17.3286 29.1074 17.3089 29.175 17.2737 29.2348C17.2385 29.2947 17.189 29.3447 17.1295 29.3805C17.0701 29.4163 17.0027 29.4367 16.9333 29.4398L7.52295 30.0002H17.8938C17.9786 30.0004 18.0621 29.9788 18.1361 29.9373C18.2102 29.8959 18.2723 29.836 18.3165 29.7636C18.3606 29.6911 18.3854 29.6085 18.3884 29.5237C18.3913 29.4389 18.3724 29.3548 18.3333 29.2794Z" fill="black"/>
<path d="M18.542 10H6.87532C6.65431 10 6.44235 10.0878 6.28607 10.2441C6.12979 10.4004 6.04199 10.6123 6.04199 10.8333V12.1292L6.34199 10.6937C6.36454 10.5841 6.42355 10.4852 6.50942 10.4134C6.59529 10.3415 6.70296 10.3008 6.81491 10.2979L18.542 10Z" fill="#FFDA75"/>
<path d="M27.8425 24.4444C25.2285 22.1325 25.1348 22.1533 25.3306 21.945C25.5264 21.7367 25.5389 21.8492 27.8425 23.8883L30.0608 21.9284C30.1022 21.8911 30.1567 21.8718 30.2124 21.8747C30.2681 21.8776 30.3203 21.9025 30.3576 21.944C30.3949 21.9854 30.4142 22.0399 30.4112 22.0956C30.4083 22.1513 30.3834 22.2035 30.342 22.2408L27.8425 24.4444Z" fill="#FFC219"/>
<path d="M34.8219 13.3365H20.8668C20.6198 13.3363 20.3784 13.2629 20.1731 13.1255C19.9677 12.9882 19.8077 12.7931 19.7132 12.5649C19.6187 12.3366 19.594 12.0855 19.6421 11.8433C19.6902 11.601 19.8091 11.3784 19.9836 11.2036C20.8168 10.3705 21.0522 10.0039 21.6999 10.0039H33.9888C34.3201 10.0042 34.6378 10.1361 34.8719 10.3705L35.7051 11.2036C35.8796 11.3784 35.9985 11.601 36.0466 11.8433C36.0947 12.0855 36.07 12.3366 35.9755 12.5649C35.881 12.7931 35.721 12.9882 35.5157 13.1255C35.3103 13.2629 35.0689 13.3363 34.8219 13.3365Z" fill="#D2423F"/>
<path d="M22.1916 10.6704C22.1452 10.6086 22.1169 10.535 22.11 10.4579C22.1031 10.3809 22.1177 10.3034 22.1523 10.2342C22.1869 10.165 22.2401 10.1068 22.3059 10.0661C22.3717 10.0255 22.4475 10.0039 22.5249 10.0039C21.5064 10.0039 21.723 9.97477 19.6089 12.0868C19.6089 12.4182 19.7406 12.7361 19.9749 12.9705C20.2093 13.2048 20.5272 13.3365 20.8586 13.3365H26.3844C23.4684 12.7616 23.9891 13.0761 22.1916 10.6704Z" fill="#BA3B38"/>
<path d="M33.4791 10.004C33.5564 10.004 33.6323 10.0256 33.6981 10.0662C33.7639 10.1069 33.8171 10.1651 33.8517 10.2343C33.8863 10.3035 33.9009 10.381 33.894 10.458C33.887 10.5351 33.8588 10.6087 33.8123 10.6705C31.7691 13.4074 32.3439 13.0075 30.2715 13.3366H35.1433C35.4747 13.3366 35.7926 13.2049 36.027 12.9706C36.2613 12.7362 36.393 12.4183 36.393 12.0869C34.2539 9.94988 34.4872 10.004 33.4791 10.004Z" fill="#BA3B38"/>
<path d="M37.0072 12.505C34.3932 9.89104 34.6993 10.0056 33.6746 10.0056C33.7519 10.0056 33.8278 10.0271 33.8936 10.0678C33.9594 10.1085 34.0126 10.1667 34.0472 10.2359C34.0818 10.3051 34.0964 10.3825 34.0895 10.4596C34.0825 10.5366 34.0543 10.6102 34.0078 10.6721L28.1758 18.4828C28.137 18.5346 28.0867 18.5766 28.0289 18.6055C27.971 18.6344 27.9072 18.6495 27.8426 18.6495C27.7779 18.6495 27.7141 18.6344 27.6563 18.6055C27.5984 18.5766 27.5481 18.5346 27.5093 18.4828L21.6773 10.67C21.6315 10.6081 21.6037 10.5347 21.5971 10.458C21.5905 10.3813 21.6052 10.3042 21.6398 10.2354C21.6743 10.1666 21.7272 10.1086 21.7927 10.0681C21.8581 10.0275 21.9336 10.0059 22.0106 10.0056C21.6836 10.0056 21.2274 9.95769 20.8129 10.3722L18.678 12.505C18.4538 12.729 18.3231 13.0297 18.3123 13.3464C18.3014 13.6632 18.4113 13.9721 18.6197 14.2109L25.4869 22.0862H30.1983L37.0717 14.2171C37.2811 13.9772 37.391 13.6665 37.379 13.3483C37.367 13.0301 37.234 12.7285 37.0072 12.505Z" fill="#DD6966"/>
<path d="M34.4266 10.6712C34.4658 10.6179 34.4917 10.5561 34.5023 10.4909C34.5129 10.4257 34.5078 10.3588 34.4874 10.296C34.4671 10.2331 34.4321 10.1759 34.3853 10.1293C34.3385 10.0826 34.2812 10.0477 34.2183 10.0275C34.0383 10.0017 33.8562 9.994 33.6747 10.0046C33.752 10.0046 33.8279 10.0262 33.8937 10.0669C33.9595 10.1075 34.0127 10.1657 34.0473 10.2349C34.0819 10.3041 34.0965 10.3816 34.0896 10.4586C34.0826 10.5357 34.0544 10.6093 34.0079 10.6712L28.1759 18.4819C28.1405 18.5298 34.4266 10.6712 34.4266 10.6712Z" fill="#E88F8D"/>
<path d="M19.0946 12.5045C21.6752 9.38022 21.2503 9.93217 18.678 12.5045C18.4538 12.7285 18.3231 13.0292 18.3123 13.3459C18.3014 13.6626 18.4113 13.9716 18.6197 14.2104L25.4869 22.0857L19.03 14.2166C18.8206 13.9767 18.7107 13.6659 18.7227 13.3478C18.7347 13.0296 18.8677 12.7279 19.0946 12.5045Z" fill="#E88F8D"/>
<path d="M37.0071 12.5052L36.8613 12.3594C36.956 12.5772 36.9868 12.8174 36.9499 13.052C36.913 13.2866 36.81 13.5059 36.653 13.6841L30.5502 20.6804C30.1649 21.1212 29.6202 21.391 29.036 21.4302L25.4868 21.6698V22.0863H30.1982L37.0717 14.2173C37.2811 13.9774 37.391 13.6666 37.379 13.3484C37.367 13.0302 37.234 12.7286 37.0071 12.5052Z" fill="#D2423F"/>
<path d="M27.8423 30.0011C29.6829 30.0011 31.1749 28.509 31.1749 26.6685C31.1749 24.828 29.6829 23.3359 27.8423 23.3359C26.0018 23.3359 24.5098 24.828 24.5098 26.6685C24.5098 28.509 26.0018 30.0011 27.8423 30.0011Z" fill="#FFDA75"/>
<path d="M24.5972 26.7405C24.5972 26.1127 24.7746 25.4976 25.1089 24.9661C25.4432 24.4346 25.9208 24.0084 26.4868 23.7366C27.0527 23.4647 27.6839 23.3582 28.3078 23.4294C28.9316 23.5006 29.5226 23.7466 30.0127 24.139C27.8632 22.2936 24.5098 23.8141 24.5098 26.6676C24.5098 27.1672 24.6221 27.6604 24.8384 28.1107C25.0547 28.561 25.3695 28.9569 25.7595 29.2691C25.395 28.9563 25.1024 28.5684 24.9018 28.1319C24.7012 27.6955 24.5973 27.2208 24.5972 26.7405Z" fill="#FFE7A3"/>
<path d="M27.8422 29.1668C27.3479 29.1668 26.8646 29.0202 26.4536 28.7456C26.0426 28.471 25.7222 28.0806 25.533 27.6239C25.3439 27.1672 25.2944 26.6646 25.3908 26.1798C25.4872 25.6949 25.7253 25.2496 26.0748 24.9C26.4244 24.5505 26.8697 24.3124 27.3546 24.216C27.8394 24.1196 28.342 24.1691 28.7987 24.3582C29.2554 24.5474 29.6458 24.8678 29.9204 25.2788C30.195 25.6898 30.3416 26.1731 30.3416 26.6674C30.3416 27.3303 30.0783 27.966 29.6096 28.4348C29.1408 28.9035 28.5051 29.1668 27.8422 29.1668Z" fill="#FFC219"/>
<path d="M27.9506 24.2774C28.5868 24.2773 29.1987 24.5211 29.6606 24.9585C29.4345 24.7034 29.1586 24.4973 28.8499 24.3528C28.5412 24.2083 28.2062 24.1285 27.8654 24.1183C27.5247 24.1081 27.1855 24.1677 26.8687 24.2934C26.5519 24.4191 26.2641 24.6082 26.0231 24.8493C25.7821 25.0903 25.5929 25.3781 25.4672 25.6949C25.3415 26.0117 25.2819 26.3509 25.2921 26.6916C25.3024 27.0323 25.3822 27.3673 25.5267 27.6761C25.6711 27.9848 25.8772 28.2607 26.1323 28.4868C25.799 28.1315 25.5768 27.6866 25.493 27.2067C25.4092 26.7268 25.4675 26.2329 25.6607 25.7856C25.8539 25.3384 26.1735 24.9574 26.5804 24.6894C26.9872 24.4215 27.4635 24.2783 27.9506 24.2774Z" fill="#F47C27"/>
<path d="M30.1983 22.5011H25.4869C25.3764 22.5011 25.2704 22.4572 25.1923 22.3791C25.1142 22.301 25.0703 22.195 25.0703 22.0845C25.0703 21.9741 25.1142 21.8681 25.1923 21.79C25.2704 21.7119 25.3764 21.668 25.4869 21.668H30.1983C30.3088 21.668 30.4147 21.7119 30.4929 21.79C30.571 21.8681 30.6149 21.9741 30.6149 22.0845C30.6149 22.195 30.571 22.301 30.4929 22.3791C30.4147 22.4572 30.3088 22.5011 30.1983 22.5011Z" fill="#FFC219"/>
<path d="M25.5184 21.7023C30.4318 21.7023 30.3089 21.6335 30.5172 21.8106C30.3298 21.6023 30.5318 21.671 25.4954 21.671C25.4116 21.6717 25.33 21.6976 25.2611 21.7453C25.1922 21.7931 25.1394 21.8606 25.1095 21.9389C25.0796 22.0172 25.074 22.1027 25.0934 22.1842C25.1128 22.2657 25.1564 22.3395 25.2184 22.3959C25.1656 22.3366 25.1308 22.2634 25.1182 22.185C25.1055 22.1066 25.1155 22.0262 25.1471 21.9533C25.1786 21.8805 25.2303 21.8181 25.2961 21.7736C25.3618 21.7291 25.439 21.7044 25.5184 21.7023Z" fill="#FFCE47"/>
<path d="M30.4211 21.7344C30.4604 21.7973 30.4822 21.8697 30.4842 21.9439C30.4862 22.0181 30.4684 22.0916 30.4325 22.1566C30.3966 22.2216 30.3439 22.2758 30.2801 22.3136C30.2162 22.3514 30.1433 22.3715 30.0691 22.3717C25.091 22.3717 25.3035 22.4134 25.1348 22.3072C25.3056 22.5758 25.1473 22.503 30.2003 22.503C30.2904 22.5025 30.3779 22.4729 30.4497 22.4185C30.5215 22.3642 30.5738 22.288 30.5987 22.2014C30.6236 22.1148 30.6197 22.0225 30.5877 21.9383C30.5556 21.8541 30.4972 21.7825 30.4211 21.7344Z" fill="#F47C27"/>
<path d="M27.5093 18.4811L21.6773 10.6683C21.6315 10.6064 21.6037 10.5331 21.5971 10.4563C21.5905 10.3796 21.6052 10.3025 21.6398 10.2337C21.6743 10.1649 21.7272 10.107 21.7927 10.0664C21.8581 10.0258 21.9336 10.0042 22.0106 10.0039C21.8814 10.0039 21.6565 10.0039 21.5378 10.0039C21.4484 10.018 21.3643 10.0553 21.2939 10.1121C21.2234 10.1689 21.1691 10.2432 21.1365 10.3275C21.1038 10.4119 21.0938 10.5034 21.1076 10.5928C21.1213 10.6822 21.1584 10.7664 21.2149 10.837L27.5093 18.4811Z" fill="#D2423F"/>
</svg>
