<svg width="56" height="56" viewBox="0 0 56 56" fill="none" xmlns="http://www.w3.org/2000/svg">
<rect width="56" height="56" rx="28" fill="#FFC329"/>
<path d="M20.6066 41.0064L20.9156 40.0553L20.6066 41.0064ZM16.3263 36.7261L17.2773 36.4171L16.3263 36.7261ZM39.6737 36.7261L38.7227 36.4171L39.6737 36.7261ZM35.3934 41.0064L35.0844 40.0553L35.3934 41.0064ZM35.3934 22.9923L35.0844 23.9434L35.3934 22.9923ZM39.6737 27.2726L38.7227 27.5816L39.6737 27.2726ZM20.6066 22.9923L20.9156 23.9434L20.6066 22.9923ZM16.3263 27.2726L17.2773 27.5816L16.3263 27.2726ZM25.3333 23.666H30.6667V21.666H25.3333V23.666ZM30.6667 40.3327H25.3333V42.3327H30.6667V40.3327ZM25.3333 40.3327C22.7738 40.3327 21.7312 40.3203 20.9156 40.0553L20.2975 41.9575C21.4904 42.345 22.9295 42.3327 25.3333 42.3327V40.3327ZM15 31.9993C15 34.4032 14.9877 35.8423 15.3752 37.0351L17.2773 36.4171C17.0123 35.6015 17 34.5589 17 31.9993H15ZM20.9156 40.0553C19.1904 39.4948 17.8379 38.1423 17.2773 36.4171L15.3752 37.0351C16.1336 39.3692 17.9635 41.1991 20.2975 41.9575L20.9156 40.0553ZM39 31.9993C39 34.5589 38.9877 35.6015 38.7227 36.4171L40.6248 37.0351C41.0123 35.8423 41 34.4032 41 31.9993H39ZM30.6667 42.3327C33.0705 42.3327 34.5096 42.345 35.7025 41.9575L35.0844 40.0553C34.2688 40.3203 33.2262 40.3327 30.6667 40.3327V42.3327ZM38.7227 36.4171C38.1621 38.1423 36.8096 39.4948 35.0844 40.0553L35.7025 41.9575C38.0365 41.1991 39.8664 39.3692 40.6248 37.0351L38.7227 36.4171ZM41 31.9993C41 29.5955 41.0123 28.1564 40.6248 26.9636L38.7227 27.5816C38.9877 28.3972 39 29.4398 39 31.9993H41ZM35.0844 23.9434C36.8096 24.5039 38.1621 25.8564 38.7227 27.5816L40.6248 26.9636C39.8664 24.6295 38.0365 22.7996 35.7025 22.0412L35.0844 23.9434ZM17 31.9993C17 29.4398 17.0123 28.3972 17.2773 27.5816L15.3752 26.9636C14.9877 28.1564 15 29.5955 15 31.9993H17ZM20.2975 22.0412C17.9635 22.7996 16.1336 24.6295 15.3752 26.9636L17.2773 27.5816C17.8379 25.8564 19.1904 24.5039 20.9156 23.9434L20.2975 22.0412ZM33.6667 21.3327V22.666H35.6667V21.3327H33.6667ZM22.3333 22.666V21.3327H20.3333V22.666H22.3333ZM28 15.666C31.1296 15.666 33.6667 18.2031 33.6667 21.3327H35.6667C35.6667 17.0985 32.2342 13.666 28 13.666V15.666ZM28 13.666C23.7658 13.666 20.3333 17.0985 20.3333 21.3327H22.3333C22.3333 18.2031 24.8704 15.666 28 15.666V13.666ZM24.3333 31.9993C24.3333 34.0244 25.975 35.666 28 35.666V33.666C27.0795 33.666 26.3333 32.9198 26.3333 31.9993H24.3333ZM28 35.666C30.025 35.666 31.6667 34.0244 31.6667 31.9993H29.6667C29.6667 32.9198 28.9205 33.666 28 33.666V35.666ZM31.6667 31.9993C31.6667 29.9743 30.025 28.3327 28 28.3327V30.3327C28.9205 30.3327 29.6667 31.0789 29.6667 31.9993H31.6667ZM28 28.3327C25.975 28.3327 24.3333 29.9743 24.3333 31.9993H26.3333C26.3333 31.0789 27.0795 30.3327 28 30.3327V28.3327ZM25.3333 21.666C23.4514 21.666 22.1704 21.6625 21.1672 21.8315L21.4995 23.8037C22.2963 23.6695 23.3709 23.666 25.3333 23.666V21.666ZM21.1672 21.8315C20.8636 21.8827 20.5768 21.9505 20.2975 22.0412L20.9156 23.9434C21.0891 23.887 21.2791 23.8409 21.4995 23.8037L21.1672 21.8315ZM20.3333 22.666V22.8176H22.3333V22.666H20.3333ZM30.6667 23.666C32.6291 23.666 33.7037 23.6695 34.5005 23.8037L34.8328 21.8315C33.8296 21.6625 32.5486 21.666 30.6667 21.666V23.666ZM34.5005 23.8037C34.7209 23.8409 34.9109 23.887 35.0844 23.9434L35.7025 22.0412C35.4232 21.9505 35.1364 21.8827 34.8328 21.8315L34.5005 23.8037ZM33.6667 22.666V22.8176H35.6667V22.666H33.6667Z" fill="#FAFAFA"/>
</svg>
