<svg width="40" height="40" viewBox="0 0 40 40" fill="none" xmlns="http://www.w3.org/2000/svg">
<g filter="url(#filter0_d_2349_4936)">
<path d="M19.9998 34.9985C28.2804 34.9985 34.9932 28.2858 34.9932 20.0051C34.9932 11.7245 28.2804 5.01172 19.9998 5.01172C11.7191 5.01172 5.00635 11.7245 5.00635 20.0051C5.00635 28.2858 11.7191 34.9985 19.9998 34.9985Z" fill="#FFD258"/>
</g>
<path d="M19.9995 31.2479C17.7754 31.2479 15.6013 30.5884 13.752 29.3528C11.9028 28.1172 10.4615 26.3609 9.61038 24.3062C8.75927 22.2514 8.53658 19.9904 8.97047 17.8091C9.40436 15.6277 10.4754 13.6241 12.048 12.0514C13.6206 10.4788 15.6243 9.40778 17.8057 8.97389C19.987 8.54 22.248 8.76268 24.3028 9.6138C26.3575 10.4649 28.1138 11.9062 29.3494 13.7555C30.585 15.6047 31.2445 17.7788 31.2445 20.0029C31.2445 22.9853 30.0598 25.8455 27.9509 27.9543C25.8421 30.0632 22.9818 31.2479 19.9995 31.2479Z" fill="#FFC219"/>
<path d="M20.4867 9.24798C23.3487 9.24784 26.102 10.3445 28.1802 12.3123C27.1628 11.1648 25.9215 10.2375 24.5325 9.58751C23.1436 8.93749 21.6363 8.57843 20.1035 8.53241C18.5706 8.48639 17.0446 8.75438 15.6191 9.31992C14.1937 9.88545 12.899 10.7366 11.8146 11.8209C10.7302 12.9053 9.87911 14.2 9.31357 15.6255C8.74804 17.0509 8.48004 18.577 8.52606 20.1098C8.57208 21.6427 8.93114 23.1499 9.58116 24.5389C10.2312 25.9278 11.1584 27.1692 12.3059 28.1865C10.8064 26.588 9.80669 24.5862 9.42972 22.4271C9.05275 20.268 9.31496 18.0459 10.1841 16.0338C11.0532 14.0218 12.4914 12.3076 14.3218 11.102C16.1522 9.89639 18.295 9.25198 20.4867 9.24798Z" fill="#D59C00"/>
<g filter="url(#filter1_d_2349_4936)">
<path d="M28.9934 37.4868C33.6842 37.4868 37.4868 33.6842 37.4868 28.9934C37.4868 24.3026 33.6842 20.5 28.9934 20.5C24.3026 20.5 20.5 24.3026 20.5 28.9934C20.5 33.6842 24.3026 37.4868 28.9934 37.4868Z" fill="#F1B100"/>
</g>
<path d="M28.9936 35.3612C27.7337 35.3612 26.5021 34.9876 25.4546 34.2877C24.407 33.5877 23.5906 32.5928 23.1084 31.4289C22.6263 30.2649 22.5001 28.9841 22.7459 27.7484C22.9917 26.5127 23.5984 25.3777 24.4893 24.4868C25.3802 23.596 26.5152 22.9893 27.7509 22.7435C28.9865 22.4977 30.2673 22.6239 31.4313 23.106C32.5953 23.5881 33.5902 24.4046 34.2901 25.4521C34.9901 26.4997 35.3637 27.7313 35.3637 28.9912C35.3637 30.6806 34.6925 32.3008 33.4979 33.4955C32.3033 34.6901 30.683 35.3612 28.9936 35.3612Z" fill="#FFCB3A"/>
<path d="M29.27 22.8985C30.8912 22.8984 32.4509 23.5196 33.6282 24.6343C33.0518 23.9843 32.3487 23.459 31.5619 23.0908C30.775 22.7226 29.9212 22.5192 29.0529 22.4931C28.1846 22.467 27.3201 22.6188 26.5126 22.9392C25.7051 23.2596 24.9717 23.7417 24.3574 24.356C23.7432 24.9703 23.261 25.7037 22.9407 26.5112C22.6203 27.3186 22.4685 28.1831 22.4946 29.0514C22.5206 29.9198 22.724 30.7736 23.0923 31.5604C23.4605 32.3472 23.9857 33.0504 24.6358 33.6267C23.7863 32.7212 23.22 31.5872 23.0065 30.3641C22.7929 29.1411 22.9415 27.8822 23.4338 26.7425C23.9261 25.6027 24.7408 24.6316 25.7777 23.9487C26.8146 23.2658 28.0284 22.9007 29.27 22.8985Z" fill="#D59C00"/>
<defs>
<filter id="filter0_d_2349_4936" x="5.00635" y="5.01172" width="30.4868" height="30.4863" filterUnits="userSpaceOnUse" color-interpolation-filters="sRGB">
<feFlood flood-opacity="0" result="BackgroundImageFix"/>
<feColorMatrix in="SourceAlpha" type="matrix" values="0 0 0 0 0 0 0 0 0 0 0 0 0 0 0 0 0 0 127 0" result="hardAlpha"/>
<feOffset dx="0.5" dy="0.5"/>
<feComposite in2="hardAlpha" operator="out"/>
<feColorMatrix type="matrix" values="0 0 0 0 0.858333 0 0 0 0 0.673268 0 0 0 0 0.16809 0 0 0 1 0"/>
<feBlend mode="normal" in2="BackgroundImageFix" result="effect1_dropShadow_2349_4936"/>
<feBlend mode="normal" in="SourceGraphic" in2="effect1_dropShadow_2349_4936" result="shape"/>
</filter>
<filter id="filter1_d_2349_4936" x="20.5" y="20.5" width="17.4868" height="17.4863" filterUnits="userSpaceOnUse" color-interpolation-filters="sRGB">
<feFlood flood-opacity="0" result="BackgroundImageFix"/>
<feColorMatrix in="SourceAlpha" type="matrix" values="0 0 0 0 0 0 0 0 0 0 0 0 0 0 0 0 0 0 127 0" result="hardAlpha"/>
<feOffset dx="0.5" dy="0.5"/>
<feComposite in2="hardAlpha" operator="out"/>
<feColorMatrix type="matrix" values="0 0 0 0 0.829167 0 0 0 0 0.608973 0 0 0 0 0 0 0 0 1 0"/>
<feBlend mode="normal" in2="BackgroundImageFix" result="effect1_dropShadow_2349_4936"/>
<feBlend mode="normal" in="SourceGraphic" in2="effect1_dropShadow_2349_4936" result="shape"/>
</filter>
</defs>
</svg>
