<svg width="20" height="20" viewBox="0 0 20 20" fill="none" xmlns="http://www.w3.org/2000/svg">
<g clip-path="url(#clip0_2119_3778)">
<circle cx="10" cy="10" r="10" fill="#FFBB37"/>
<path d="M7 8.38477H8.37695C8.42383 7.6582 8.91016 7.19531 9.66602 7.19531C10.4043 7.19531 10.8965 7.64648 10.8965 8.26758C10.8965 8.84766 10.6504 9.16406 9.92383 9.60352C9.11523 10.0781 8.77539 10.6055 8.82812 11.4727L8.83398 11.8887H10.1934V11.5488C10.1934 10.9629 10.4102 10.6582 11.1777 10.2129C11.9746 9.73828 12.4199 9.11133 12.4199 8.21484C12.4199 6.92578 11.3477 6 9.74219 6C8.00195 6 7.04688 7.00781 7 8.38477ZM9.53125 14.6426C10.0059 14.6426 10.3809 14.2734 10.3809 13.8105C10.3809 13.3477 10.0059 12.9844 9.53125 12.9844C9.05664 12.9844 8.67578 13.3477 8.67578 13.8105C8.67578 14.2734 9.05664 14.6426 9.53125 14.6426Z" fill="white"/>
</g>
<defs>
<clipPath id="clip0_2119_3778">
<rect width="20" height="20" fill="white"/>
</clipPath>
</defs>
</svg>
