<svg width="24" height="24" viewBox="0 0 24 24" fill="none" xmlns="http://www.w3.org/2000/svg">
<g clip-path="url(#clip0_2333_3726)">
<circle cx="12" cy="12" r="12" fill="#FFDD64"/>
<g clip-path="url(#clip1_2333_3726)">
<path d="M16.1713 8.0875H12.3982V7.58558C12.3982 7.37788 12.2251 7.1875 12.0001 7.1875C11.7924 7.1875 11.602 7.36058 11.602 7.58558V8.07019H7.82896C7.2405 8.07019 6.77319 8.5375 6.77319 9.12596V12.6394C6.77319 13.2279 7.2405 13.6952 7.82896 13.6952H9.31742L7.89819 16.2048C7.79435 16.3952 7.86358 16.6375 8.05396 16.7413C8.10589 16.776 8.17512 16.7933 8.24435 16.7933C8.38281 16.7933 8.52127 16.724 8.5905 16.5856L10.2001 13.6952H11.602V16.3952C11.602 16.6029 11.7751 16.7933 12.0001 16.7933C12.2078 16.7933 12.3982 16.6202 12.3982 16.3952V13.7125H13.8347L15.4617 16.6029C15.5309 16.724 15.6693 16.7933 15.8078 16.7933C15.877 16.7933 15.9463 16.776 15.9982 16.7413C16.1886 16.6375 16.2578 16.3952 16.154 16.2048L14.7347 13.6952H16.2059C16.7943 13.6952 17.2617 13.2279 17.2617 12.6394V9.14327C17.2443 8.55481 16.7597 8.0875 16.1713 8.0875ZM16.4655 12.6567C16.4655 12.8125 16.3443 12.9337 16.1886 12.9337H7.82896C7.67319 12.9337 7.55204 12.8125 7.55204 12.6567V9.14327C7.55204 8.9875 7.67319 8.86635 7.82896 8.86635H16.1886C16.3443 8.86635 16.4655 8.9875 16.4655 9.14327V12.6567Z" fill="white"/>
</g>
</g>
<defs>
<clipPath id="clip0_2333_3726">
<rect width="24" height="24" fill="white"/>
</clipPath>
<clipPath id="clip1_2333_3726">
<rect width="11.0769" height="11.0769" fill="white" transform="translate(6.46167 6.46094)"/>
</clipPath>
</defs>
</svg>
